<svg xmlns="http://www.w3.org/2000/svg" xmlns:xlink="http://www.w3.org/1999/xlink" width="396.303" height="60"><defs><path id="a" d="M0 0h396.303v60H0z"/></defs><path fill="#00A0DC" d="M11.692 6.563C6.341 6.563 2 10.9 2 16.252c0 5.356 4.341 9.69 9.692 9.69h19.36v19.366a9.683 9.683 0 0 0 9.691 9.689c5.349 0 9.692-4.33 9.692-9.689V16.252c0-5.352-4.343-9.69-9.692-9.69H11.692z"/><path fill="#DA1C5C" d="M94.026 6.563c5.351 0 9.692 4.338 9.692 9.69 0 5.356-4.341 9.69-9.692 9.69h-19.36v19.366a9.683 9.683 0 0 1-9.691 9.689c-5.349 0-9.692-4.33-9.692-9.689V16.252c0-5.352 4.343-9.69 9.692-9.69h29.051z"/><path fill="#fff" d="M158.264 11.652v8.154H145.45v34.337h-9.565V19.806H123.07v-8.154zM177.485 34.767a9.454 9.454 0 0 0-.398-2.269 5.665 5.665 0 0 0-1.043-1.962 5.563 5.563 0 0 0-1.777-1.41c-.716-.368-1.605-.552-2.667-.552-1.023 0-1.901.175-2.637.522a5.469 5.469 0 0 0-1.839 1.378 6.181 6.181 0 0 0-1.135 1.993 13 13 0 0 0-.582 2.299h12.078zm-21.459 3.495c0-2.861.438-5.365 1.318-7.511.879-2.147 2.033-3.934 3.464-5.365a14.428 14.428 0 0 1 4.936-3.25 15.45 15.45 0 0 1 5.733-1.103c4.577 0 8.195 1.4 10.852 4.199 2.657 2.801 3.986 6.919 3.986 12.356 0 .532-.022 1.114-.062 1.747-.041.633-.082 1.195-.122 1.687h-20.724c.204 1.881 1.082 3.371 2.637 4.476 1.552 1.103 3.637 1.655 6.253 1.655a26.37 26.37 0 0 0 4.936-.46c1.615-.307 2.933-.685 3.955-1.135l1.226 7.419c-.49.246-1.145.491-1.962.736-.818.245-1.728.46-2.728.645a43.945 43.945 0 0 1-3.219.459c-1.145.123-2.29.183-3.433.183-2.904 0-5.427-.428-7.573-1.287-2.146-.857-3.924-2.033-5.335-3.524-1.41-1.492-2.452-3.261-3.127-5.305-.673-2.044-1.011-4.251-1.011-6.622M205.059 54.755c-2.658-.042-4.814-.327-6.469-.857-1.655-.532-2.964-1.277-3.924-2.239-.961-.96-1.615-2.125-1.961-3.494-.348-1.369-.522-2.913-.522-4.63v-35.5l9.136-1.472v35.133c0 .818.062 1.554.185 2.207.122.655.356 1.207.705 1.655.347.452.848.818 1.502 1.104.653.287 1.532.471 2.636.552l-1.288 7.541zM230.539 34.767a9.602 9.602 0 0 0-.396-2.269 5.716 5.716 0 0 0-1.043-1.962 5.59 5.59 0 0 0-1.778-1.41c-.716-.368-1.605-.552-2.667-.552-1.023 0-1.901.175-2.637.522a5.459 5.459 0 0 0-1.839 1.378 6.202 6.202 0 0 0-1.136 1.993c-.265.756-.46 1.523-.582 2.299h12.078zm-21.459 3.495c0-2.861.438-5.365 1.318-7.511.879-2.147 2.033-3.934 3.464-5.365a14.428 14.428 0 0 1 4.936-3.25 15.45 15.45 0 0 1 5.733-1.103c4.577 0 8.195 1.4 10.852 4.199 2.657 2.801 3.985 6.919 3.985 12.356 0 .532-.021 1.114-.061 1.747-.041.633-.082 1.195-.122 1.687H218.46c.204 1.881 1.083 3.371 2.638 4.476 1.552 1.103 3.637 1.655 6.253 1.655 1.676 0 3.319-.153 4.936-.46 1.615-.307 2.934-.685 3.955-1.135l1.226 7.419c-.49.246-1.145.491-1.962.736s-1.728.46-2.728.645a43.945 43.945 0 0 1-3.219.459 32.112 32.112 0 0 1-3.433.183c-2.903 0-5.427-.428-7.572-1.287-2.146-.857-3.925-2.033-5.335-3.524-1.41-1.492-2.452-3.261-3.128-5.305-.674-2.044-1.011-4.251-1.011-6.622M272.324 11.652v8.154h-12.813v34.337h-9.566V19.806h-12.814v-8.154zM291.485 29.984a70.712 70.712 0 0 0-2.882-.644 17.873 17.873 0 0 0-3.557-.337c-.572 0-1.257.051-2.054.153-.797.103-1.4.214-1.81.338v24.648h-9.135V23.607c1.635-.572 3.566-1.113 5.794-1.625 2.229-.51 4.711-.766 7.449-.766.491 0 1.083.03 1.779.092a37.061 37.061 0 0 1 4.169.613c.693.144 1.287.317 1.778.521l-1.531 7.542zM308.966 47.765c.898 0 1.758-.019 2.574-.061.817-.04 1.473-.102 1.964-.185V40.59c-.368-.08-.921-.162-1.656-.244a18.397 18.397 0 0 0-2.024-.123c-.857 0-1.666.052-2.421.154-.757.101-1.422.297-1.993.581a3.434 3.434 0 0 0-1.349 1.166c-.328.49-.491 1.103-.491 1.838 0 1.432.48 2.423 1.442 2.975.96.552 2.277.828 3.954.828m-.737-26.732c2.698 0 4.946.306 6.745.92 1.798.613 3.239 1.492 4.322 2.636 1.083 1.145 1.849 2.535 2.3 4.17.449 1.635.675 3.454.675 5.456v19.008c-1.31.286-3.128.624-5.458 1.011-2.33.389-5.15.582-8.461.582-2.085 0-3.976-.184-5.672-.551-1.696-.368-3.157-.97-4.384-1.809a8.272 8.272 0 0 1-2.82-3.281c-.654-1.348-.981-3.004-.981-4.966 0-1.879.377-3.475 1.135-4.782a8.746 8.746 0 0 1 3.034-3.127c1.268-.776 2.72-1.339 4.354-1.686a24.367 24.367 0 0 1 5.089-.521c1.184 0 2.238.051 3.157.154.92.101 1.665.234 2.239.397v-.857c0-1.555-.473-2.801-1.411-3.741-.941-.94-2.575-1.41-4.905-1.41a31.34 31.34 0 0 0-4.599.337c-1.513.225-2.82.542-3.925.95l-1.165-7.357a29.411 29.411 0 0 1 1.993-.521 35.494 35.494 0 0 1 2.606-.491 55.956 55.956 0 0 1 2.973-.367 32.14 32.14 0 0 1 3.159-.154M337.323 37.771c0 2.819.632 5.089 1.9 6.806 1.266 1.716 3.147 2.575 5.64 2.575.818 0 1.574-.031 2.269-.092a19.672 19.672 0 0 0 1.718-.215V30.229c-.573-.367-1.318-.674-2.238-.919-.92-.245-1.85-.368-2.79-.368-4.334 0-6.499 2.944-6.499 8.829M357.985 53.1a35.62 35.62 0 0 1-2.821.706 50.146 50.146 0 0 1-3.341.582 64.616 64.616 0 0 1-3.556.397 40.766 40.766 0 0 1-3.466.154c-2.656 0-5.026-.389-7.11-1.166-2.085-.776-3.844-1.889-5.273-3.341-1.432-1.45-2.524-3.208-3.281-5.273-.758-2.063-1.134-4.384-1.134-6.959 0-2.615.326-4.975.98-7.081.653-2.106 1.595-3.894 2.821-5.366a12.094 12.094 0 0 1 4.506-3.372c1.778-.776 3.812-1.164 6.101-1.164 1.267 0 2.401.122 3.403.368 1.001.244 2.013.592 3.035 1.042V8.034l9.136-1.472V53.1zM385.422 34.767c-.041-.775-.174-1.532-.398-2.269s-.572-1.39-1.043-1.962a5.57 5.57 0 0 0-1.776-1.41c-.716-.368-1.605-.552-2.667-.552-1.023 0-1.901.175-2.638.522a5.479 5.479 0 0 0-1.839 1.378c-.491.573-.869 1.237-1.135 1.993s-.46 1.523-.582 2.299h12.078zm-21.459 3.495c0-2.861.438-5.365 1.318-7.511.878-2.147 2.032-3.934 3.464-5.365a14.409 14.409 0 0 1 4.936-3.25 15.45 15.45 0 0 1 5.733-1.103c4.577 0 8.194 1.4 10.852 4.199 2.657 2.801 3.985 6.919 3.985 12.356 0 .532-.021 1.114-.062 1.747-.041.633-.082 1.195-.122 1.687h-20.724c.204 1.881 1.082 3.371 2.637 4.476 1.553 1.103 3.638 1.655 6.253 1.655 1.677 0 3.32-.153 4.936-.46 1.616-.307 2.934-.685 3.956-1.135l1.225 7.419c-.49.246-1.144.491-1.961.736-.818.245-1.728.46-2.729.645a43.79 43.79 0 0 1-3.219.459c-1.145.124-2.29.184-3.433.184-2.904 0-5.427-.428-7.573-1.287-2.146-.857-3.924-2.033-5.335-3.524-1.41-1.492-2.452-3.261-3.127-5.305-.673-2.045-1.01-4.252-1.01-6.623"/></svg>