<svg xmlns="http://www.w3.org/2000/svg" width="88" height="37" viewBox="0 0 88 37">
    <g fill="none" fill-rule="evenodd">
        <path fill="#C8242B" d="M50.776 37L87.929 37 87.929 0.002 50.776 0.002z"/>
        <path fill="#000000" d="M5.083 7.369L0 7.369 0 3.253 14.556 3.253 14.556 7.369 9.475 7.369 9.475 33.79 5.083 33.79 5.083 7.369M20.157 26.455c0 2.07 1.318 3.043 2.84 3.043 1.526 0 2.844-.973 2.844-3.043v-15.89c0-2.073-1.318-3.045-2.845-3.045-1.521 0-2.84.972-2.84 3.044v15.89zm-4.203-15.89c0-4.905 3.625-7.355 7.042-7.355 3.422 0 7.046 2.45 7.046 7.354v15.89c0 4.904-3.624 7.355-7.046 7.355-3.417 0-7.042-2.45-7.042-7.354v-15.89zM37.674 17.736h2.11c3.576 0 3.618-2.1 3.618-5.146 0-2.872 0-5.233-3.444-5.233h-2.284v10.38zM33.282 3.242h6.588c2.412 0 4.177.556 5.688 2.144 1.504 1.585 1.978 3.515 1.978 7.16 0 2.66-.216 4.462-1.249 6.134-1.204 1.973-3.143 3.174-6.373 3.174h-2.24v11.924h-4.392V3.242zM84.756 3.225L79.891 3.225 76.013 12.616 72.134 3.225 54.015 3.225 54.015 33.778 58.45 33.778 58.45 20.403 64.576 20.403 64.576 16.61 58.45 16.61 58.45 7.07 68.861 7.07 73.582 18.507 67.273 33.79 72.134 33.79 76.013 24.398 79.891 33.79 84.756 33.79 78.445 18.507 84.756 3.225"/>
        <g>
            <path fill="#C8242B" d="M50.776 37L87.929 37 87.929 0.002 50.776 0.002z"/>
            <path fill="#000" d="M5.083 7.369L0 7.369 0 3.253 14.556 3.253 14.556 7.369 9.475 7.369 9.475 33.79 5.083 33.79 5.083 7.369M20.157 26.455c0 2.07 1.318 3.043 2.84 3.043 1.526 0 2.844-.973 2.844-3.043v-15.89c0-2.073-1.318-3.045-2.845-3.045-1.521 0-2.84.972-2.84 3.044v15.89zm-4.203-15.89c0-4.905 3.625-7.355 7.042-7.355 3.422 0 7.046 2.45 7.046 7.354v15.89c0 4.904-3.624 7.355-7.046 7.355-3.417 0-7.042-2.45-7.042-7.354v-15.89zM37.674 17.736h2.11c3.576 0 3.618-2.1 3.618-5.146 0-2.872 0-5.233-3.444-5.233h-2.284v10.38zM33.282 3.242h6.588c2.412 0 4.177.556 5.688 2.144 1.504 1.585 1.978 3.515 1.978 7.16 0 2.66-.216 4.462-1.249 6.134-1.204 1.973-3.143 3.174-6.373 3.174h-2.24v11.924h-4.392V3.242z"/>
            <path fill="#ffffff" d="M84.756 3.225L79.891 3.225 76.013 12.616 72.134 3.225 54.015 3.225 54.015 33.778 58.45 33.778 58.45 20.403 64.576 20.403 64.576 16.61 58.45 16.61 58.45 7.07 68.861 7.07 73.582 18.507 67.273 33.79 72.134 33.79 76.013 24.398 79.891 33.79 84.756 33.79 78.445 18.507 84.756 3.225"/>
        </g>
    </g>
</svg>
