<svg width="119" height="84" viewBox="0 0 119 84" fill="none" xmlns="http://www.w3.org/2000/svg">
<g clip-path="url(#clip0_1104_21830)">
<rect x="0.5" width="117.6" height="84" rx="9.14286" fill="#249F58"/>
<path d="M106.9 0H11.7C5.51441 0 0.5 5.01441 0.5 11.2V72.8C0.5 78.9856 5.51441 84 11.7 84H106.9C113.086 84 118.1 78.9856 118.1 72.8V11.2C118.1 5.01441 113.086 0 106.9 0Z" fill="#249F58"/>
<path d="M53.7 67.1999C67.6176 67.1999 78.9 55.9175 78.9 41.9999C78.9 28.0824 67.6176 16.7999 53.7 16.7999C39.7824 16.7999 28.5 28.0824 28.5 41.9999C28.5 55.9175 39.7824 67.1999 53.7 67.1999Z" fill="#F93939"/>
</g>
<defs>
<clipPath id="clip0_1104_21830">
<rect x="0.5" width="117.6" height="84" rx="9.14286" fill="white"/>
</clipPath>
</defs>
</svg>
