<svg width="119" height="84" viewBox="0 0 119 84" fill="none" xmlns="http://www.w3.org/2000/svg">
<g clip-path="url(#clip0_1104_22880)">
<rect x="0.5" width="117.6" height="84" rx="9.14286" fill="white"/>
<path fill-rule="evenodd" clip-rule="evenodd" d="M0.5 56H118.1V84H0.5V56Z" fill="#249F58"/>
<path fill-rule="evenodd" clip-rule="evenodd" d="M59.2997 56C67.0277 56 73.2997 49.728 73.2997 42C73.2997 34.272 67.0277 28 59.2997 28C51.5717 28 45.2997 34.272 45.2997 42C45.2997 49.728 51.5717 56 59.2997 56ZM59.2997 50.4C63.9365 50.4 67.6997 46.6368 67.6997 42C67.6997 37.3632 63.9365 33.6 59.2997 33.6C54.6629 33.6 50.8997 37.3632 50.8997 42C50.8997 46.6368 54.6629 50.4 59.2997 50.4Z" fill="#1A47B8"/>
<path d="M59.2994 44.8001C60.8458 44.8001 62.0994 43.5465 62.0994 42.0001C62.0994 40.4537 60.8458 39.2001 59.2994 39.2001C57.753 39.2001 56.4994 40.4537 56.4994 42.0001C56.4994 43.5465 57.753 44.8001 59.2994 44.8001Z" fill="#1A47B8"/>
<path fill-rule="evenodd" clip-rule="evenodd" d="M0.5 0H118.1V28H0.5V0Z" fill="#FF6C2D"/>
</g>
<defs>
<clipPath id="clip0_1104_22880">
<rect x="0.5" width="117.6" height="84" rx="9.14286" fill="white"/>
</clipPath>
</defs>
</svg>
