<svg width="119" height="84" viewBox="0 0 119 84" fill="none" xmlns="http://www.w3.org/2000/svg">
<g clip-path="url(#clip0_1104_21709)">
<rect x="0.5" width="117.6" height="84" rx="9.14286" fill="#0A6A30"/>
<path d="M106.9 0H11.7C5.51441 0 0.5 5.01441 0.5 11.2V72.8C0.5 78.9856 5.51441 84 11.7 84H106.9C113.086 84 118.1 78.9856 118.1 72.8V11.2C118.1 5.01441 113.086 0 106.9 0Z" fill="#0A6A30"/>
<path fill-rule="evenodd" clip-rule="evenodd" d="M89.9544 33.4544C89.5848 36.792 88.532 39.2 87.3 39.2C86.068 39.2 85.0152 36.792 84.6456 33.4544C81.308 33.0848 78.9 32.032 78.9 30.8C78.9 29.568 81.308 28.5152 84.6456 28.1456C85.0152 24.808 86.068 22.4 87.3 22.4C88.532 22.4 89.5848 24.808 89.9544 28.1456C93.292 28.5152 95.7 29.568 95.7 30.8C95.7 32.032 93.292 33.0848 89.9544 33.4544ZM0.5 0H34.1V84H0.5V0Z" fill="white"/>
<path fill-rule="evenodd" clip-rule="evenodd" d="M101.132 39.0207C101.244 40.0007 101.3 40.9919 101.3 41.9999C101.3 55.9159 90.0161 67.1999 76.1001 67.1999C62.1841 67.1999 50.9001 55.9159 50.9001 41.9999C50.9001 28.0839 62.1841 16.7999 76.1001 16.7999C77.1081 16.7999 78.0993 16.8559 79.0793 16.9679C69.4921 18.2559 62.1001 26.4711 62.1001 36.3999C62.1001 47.2247 70.8753 55.9999 81.7001 55.9999C91.6345 55.9999 99.8441 48.6079 101.132 39.0207Z" fill="white"/>
</g>
<defs>
<clipPath id="clip0_1104_21709">
<rect x="0.5" width="117.6" height="84" rx="9.14286" fill="white"/>
</clipPath>
</defs>
</svg>
