<svg xmlns="http://www.w3.org/2000/svg" width="88" height="32" fill="none"><path fill="#0C34F0" d="M0 16C0 5.295 2.294 3 12.997 3s12.997 2.295 12.997 13c0 10.706-2.294 13-12.997 13S0 26.706 0 16Z"></path><path fill="#fff" fill-rule="evenodd" d="M18.835 13.756c1.202-1.616 1.959-3.132 2.139-4.313.74-.012 1.324.178 1.688.595.973 1.114.136 3.557-1.912 6.248 1.855 2.827 2.52 5.322 1.471 6.365-.392.39-.987.54-1.725.476-.097-1.19-.746-2.756-1.833-4.451-.499.506-1.033 1.01-1.6 1.505-4.527 3.957-9.362 5.833-10.798 4.19-.364-.417-.475-1.02-.363-1.753 2.18-.037 5.73-1.831 9.11-4.785a29.473 29.473 0 0 0 1.776-1.686 29.505 29.505 0 0 0-1.654-1.805C11.97 11.16 8.552 9.122 6.38 8.933c-.06-.739.092-1.333.484-1.723 1.547-1.54 6.24.67 10.48 4.933.53.533 1.028 1.073 1.491 1.613Z" clip-rule="evenodd" opacity="0.35"></path><path fill="#fff" fill-rule="evenodd" d="m4.16 21.96 2.056 2.35c-.873-1.114-.088-3.435 1.825-6.006.463.54.96 1.08 1.49 1.612 4.242 4.264 8.934 6.473 10.48 4.934l.03-.03 2.286-2.25-.038.009a1.526 1.526 0 0 1-.067.072c-1.547 1.539-6.24-.67-10.48-4.934a29.545 29.545 0 0 1-1.654-1.804 29.512 29.512 0 0 1 1.776-1.685c4.458-3.897 9.214-5.776 10.73-4.263L20.638 7.72a1.526 1.526 0 0 0-.027-.031c-1.436-1.644-6.27.232-10.799 4.19-.566.494-1.1.998-1.599 1.504-1.73-2.7-2.351-5.072-1.4-6.12L4.595 9.466l.001.003c-.964 1.077-.29 3.531 1.53 6.304-2.009 2.64-2.852 5.04-1.966 6.183v.002Z" clip-rule="evenodd"></path><path fill="#2F2F2F" fill-rule="evenodd" d="M82.01 16.024c-.019 2.765-2.28 5-5.068 5-2.8 0-5.069-2.254-5.069-5.036 0-2.781 2.27-5.036 5.069-5.036 2.787 0 5.05 2.236 5.069 5v.072Zm0 6.19a8.056 8.056 0 0 1-5.068 1.781c-4.45 0-8.058-3.585-8.058-8.007 0-4.421 3.608-8.006 8.058-8.006 1.92 0 3.684.667 5.069 1.782V8.24H85v15.497h-2.99v-1.524ZM61.8 4.495h-1.494v13.237c0 3.403 2.748 6.134 6.173 6.134h1.235v-2.97H66.48a3.155 3.155 0 0 1-3.184-3.164V11.21h4.419V8.24h-4.419V4.495H61.8ZM56.213 19.281a5.07 5.07 0 0 1-3.836 1.744c-2.799 0-5.068-2.255-5.068-5.037 0-2.781 2.269-5.036 5.069-5.036a5.07 5.07 0 0 1 3.835 1.744l2.262-1.942a8.061 8.061 0 0 0-6.098-2.772c-4.45 0-8.058 3.584-8.058 8.006 0 4.422 3.608 8.007 8.058 8.007a8.061 8.061 0 0 0 6.098-2.772l-2.262-1.942Z" clip-rule="evenodd"></path><path fill="#2F2F2F" fill-rule="evenodd" d="M39.25 21.025c2.8 0 5.07-2.255 5.07-5.037 0-2.781-2.27-5.036-5.07-5.036-2.799 0-5.068 2.255-5.068 5.036 0 2.782 2.27 5.037 5.069 5.037Zm0 2.97c4.45 0 8.059-3.585 8.059-8.007 0-4.421-3.608-8.006-8.058-8.006-4.45 0-8.059 3.584-8.059 8.006 0 4.422 3.608 8.007 8.059 8.007Z" clip-rule="evenodd"></path></svg>