<svg width="443" height="277" viewBox="0 0 443 277" fill="none" xmlns="http://www.w3.org/2000/svg">
<g clip-path="url(#clip0)">
<path d="M20.95 118.344C20.95 118.344 15.5016 117.955 16.0205 130.075C16.5394 142.194 17.7718 148.675 17.7718 148.675C17.7718 148.675 17.6421 151.397 15.5016 150.814C13.4261 150.295 9.46958 147.638 7.52375 149.647C5.51306 151.657 6.22653 154.767 8.88583 158.462C11.5451 162.156 17.1232 170.387 17.5772 171.164C18.0961 171.877 18.2907 173.303 16.7989 173.174C15.3071 173.044 5.31848 169.674 4.02126 174.47C2.72405 179.331 11.8046 188.274 12.7775 189.311C13.7504 190.284 13.8153 190.932 13.4261 191.58C13.0369 192.163 9.79388 190.737 6.87514 189.895C4.02126 189.052 0.518775 188.598 -0.000111859 191.45C-0.518999 194.302 3.50238 202.662 18.4852 211.412L25.6848 215.041L32.5601 210.699C46.6349 200.459 49.8131 191.774 48.9699 188.987C48.1267 186.201 44.7539 187.043 41.9649 188.145C39.1759 189.247 36.1274 191.061 35.6734 190.478C35.2194 189.895 35.2194 189.247 36.0625 188.21C36.9057 187.108 45.0782 177.257 43.327 172.59C41.5109 167.924 31.9115 172.266 30.4845 172.59C29.0576 172.85 29.0576 171.489 29.5116 170.711C29.9008 169.933 34.6356 161.119 36.9057 157.23C39.1759 153.342 39.565 150.166 37.3598 148.351C35.2194 146.601 31.5871 149.583 29.5765 150.36C27.5658 151.073 27.1117 148.416 27.1117 148.416C27.1117 148.416 27.6955 141.87 26.982 129.751C26.2686 117.631 20.7554 118.603 20.7554 118.603" fill="#EBEBEB"/>
<path d="M21.3391 129.232C21.3391 129.232 21.3391 129.297 21.3391 129.491C21.3391 129.686 21.404 129.945 21.404 130.204C21.4688 130.852 21.5337 131.825 21.5986 133.056C21.7931 135.519 21.9877 139.148 22.2472 143.62C22.7661 152.564 23.3498 164.878 23.9335 178.423C24.5173 192.033 25.101 204.347 25.4902 213.291C25.6848 217.763 25.8794 221.328 26.0091 223.855C26.074 225.087 26.1388 226.059 26.1388 226.707C26.1388 227.031 26.1388 227.29 26.1388 227.485C26.1388 227.679 26.1388 227.744 26.1388 227.744C26.1388 227.744 26.1388 227.679 26.1388 227.485C26.1388 227.29 26.074 227.031 26.074 226.772C26.0091 226.124 25.9442 225.152 25.8794 223.92C25.6848 221.457 25.4902 217.828 25.2308 213.356C24.7119 204.412 24.1281 192.098 23.5444 178.488C22.9606 164.878 22.3769 152.564 21.9877 143.62C21.7931 139.148 21.5986 135.584 21.4688 133.056C21.404 131.825 21.3391 130.852 21.3391 130.204C21.3391 129.88 21.3391 129.621 21.3391 129.427C21.3391 129.297 21.3391 129.232 21.3391 129.232Z" fill="#F0F1F2"/>
<path d="M12.9072 153.601C12.9072 153.601 13.1018 153.73 13.3613 153.99C13.6207 154.249 14.0099 154.638 14.5287 155.091C15.5017 156.064 16.734 157.36 18.161 158.85C19.523 160.341 20.7554 161.702 21.7283 162.739C22.1823 163.193 22.5066 163.582 22.8309 163.906C23.0904 164.165 23.2201 164.359 23.2201 164.359C23.2201 164.359 23.0255 164.23 22.7661 163.97C22.5066 163.711 22.1175 163.322 21.5986 162.869C20.6257 161.897 19.3933 160.536 18.0312 159.045C16.6692 157.554 15.4368 156.258 14.4639 155.221C14.0099 154.767 13.6856 154.379 13.3613 154.055C13.0369 153.73 12.9072 153.601 12.9072 153.601Z" fill="#F0F1F2"/>
<path d="M29.9182 158.097C33.2386 154.733 35.8889 151.966 35.8379 151.916C35.7869 151.865 33.0539 154.551 29.7335 157.915C26.4132 161.279 23.7629 164.046 23.8139 164.096C23.8649 164.147 26.5979 161.461 29.9182 158.097Z" fill="#F0F1F2"/>
<path d="M23.8038 185.034C23.8038 185.034 23.9984 184.904 24.3227 184.71C24.7119 184.515 25.1659 184.256 25.7497 183.932C26.9172 183.284 28.6035 182.312 30.3548 181.21C32.106 180.108 33.7276 179.071 34.8302 178.294C35.3491 177.97 35.8031 177.646 36.1923 177.386C36.5166 177.192 36.7112 177.062 36.7112 177.062C36.7112 177.062 36.5814 177.192 36.2571 177.451C35.9328 177.71 35.5437 178.034 34.9599 178.423C33.8573 179.201 32.3006 180.303 30.4845 181.405C28.6684 182.506 27.0469 183.414 25.8145 184.062C25.2308 184.386 24.7119 184.645 24.3876 184.775C23.9984 184.969 23.8038 185.034 23.8038 185.034Z" fill="#F0F1F2"/>
<path d="M11.8046 177.71C11.8046 177.71 11.9991 177.775 12.3235 177.97C12.6478 178.164 13.1018 178.358 13.6207 178.683C14.7233 179.331 16.2151 180.173 17.9015 181.145C19.5879 182.117 21.0797 183.025 22.1174 183.738C22.6363 184.062 23.0904 184.321 23.4147 184.515C23.739 184.71 23.8687 184.84 23.8687 184.84C23.8687 184.84 23.6741 184.775 23.3498 184.58C23.0255 184.386 22.5715 184.191 22.0526 183.867C20.95 183.219 19.4582 182.377 17.7718 181.405C16.0854 180.432 14.5936 179.525 13.5558 178.812C13.0369 178.488 12.5829 178.229 12.2586 178.034C11.9991 177.84 11.8046 177.71 11.8046 177.71Z" fill="#F0F1F2"/>
<path d="M9.4696 196.181C9.4696 196.181 9.72905 196.246 10.1182 196.505C10.5722 196.765 11.156 197.089 11.8046 197.413C13.2315 198.19 15.1774 199.292 17.3178 200.588C19.4582 201.82 21.404 202.986 22.7661 203.829C23.4147 204.218 23.9984 204.542 24.3876 204.801C24.7768 205.06 24.9714 205.19 24.9714 205.19C24.9714 205.19 24.7119 205.125 24.3228 204.866C23.8687 204.607 23.285 204.283 22.6364 203.959C21.2094 203.181 19.2636 202.079 17.1232 200.783C14.9828 199.551 13.037 198.385 11.6749 197.542C11.0263 197.153 10.4425 196.829 10.0534 196.57C9.66419 196.311 9.4696 196.181 9.4696 196.181Z" fill="#F0F1F2"/>
<path d="M24.647 204.866C24.647 204.866 24.8416 204.671 25.2956 204.477C25.7497 204.218 26.3334 203.829 27.0469 203.44C28.5387 202.533 30.5494 201.301 32.8195 199.811C35.0248 198.385 37.0355 197.024 38.4624 195.987C39.111 195.533 39.6948 195.144 40.1488 194.82C40.538 194.561 40.7974 194.431 40.7974 194.431C40.7974 194.431 40.6028 194.626 40.2136 194.95C39.8245 195.274 39.3056 195.663 38.5921 196.181C37.1652 197.218 35.2194 198.579 33.0141 200.07C30.8088 201.496 28.7333 202.727 27.2415 203.635C26.4631 204.088 25.8794 204.412 25.4254 204.607C24.9065 204.801 24.647 204.866 24.647 204.866Z" fill="#F0F1F2"/>
<path d="M35.4788 217.374H15.5016L22.0526 266.76H28.9927L35.4788 217.374Z" fill="#F0F1F2"/>
<path d="M16.5394 223.402C16.5394 223.402 16.5394 223.467 16.6692 223.596C16.734 223.726 16.9286 223.855 17.1232 223.92C17.5772 224.115 18.4204 224.115 19.2636 223.661C20.0419 223.207 20.7554 222.365 21.858 221.976C22.9607 221.587 24.2579 221.652 25.5551 222.041C26.8523 222.43 27.9549 223.078 28.9927 223.726C30.0305 224.309 30.9385 224.892 31.7817 225.216C32.6249 225.605 33.3384 225.735 33.8573 225.8C34.1167 225.865 34.3113 225.865 34.441 225.865C34.5708 225.865 34.6356 225.865 34.6356 225.865C34.6356 225.8 33.533 225.8 31.9115 225.022C31.1331 224.633 30.2251 224.115 29.1873 223.467C28.2144 222.818 27.0469 222.17 25.6848 221.781C24.3876 221.328 22.9607 221.263 21.7932 221.717C21.2094 221.911 20.7554 222.3 20.3014 222.624C19.9122 222.948 19.523 223.272 19.1339 223.531C18.4204 223.985 17.6421 224.05 17.188 223.855C16.734 223.661 16.5394 223.402 16.5394 223.402Z" fill="#F5F5F5"/>
<path d="M17.2529 232.54C17.2529 232.54 17.3826 232.346 17.7069 232.022C18.0312 231.697 18.5501 231.309 19.3284 230.985C20.1067 230.725 21.0148 230.531 22.1174 230.596C23.2201 230.661 24.3876 230.855 25.6199 231.049C26.8523 231.244 28.0846 231.373 29.1873 231.179C30.2899 231.049 31.2628 230.725 31.9763 230.401C32.7546 230.077 33.2735 229.688 33.6627 229.429C34.0518 229.17 34.1816 228.975 34.1816 228.975C34.1167 228.911 33.4032 229.624 31.8466 230.272C31.0682 230.596 30.1602 230.855 29.1224 230.985C28.0846 231.114 26.8523 231.049 25.6199 230.79C24.3876 230.596 23.2201 230.336 22.1174 230.336C21.0148 230.336 20.0419 230.531 19.2636 230.855C18.4852 231.179 17.9663 231.633 17.642 232.022C17.5123 232.216 17.3826 232.346 17.3177 232.475C17.2529 232.475 17.2529 232.475 17.2529 232.54Z" fill="#F5F5F5"/>
<path d="M33.2087 237.401C33.2087 237.401 33.0141 237.271 32.6898 237.142C32.3006 237.012 31.7169 236.818 31.0034 236.818C30.2899 236.753 29.4467 236.818 28.4738 236.947C27.5658 237.077 26.528 237.336 25.4902 237.595C24.4525 237.79 23.4147 237.984 22.5066 237.919C21.5986 237.919 20.7554 237.66 20.1716 237.401C18.8744 236.818 18.4204 236.04 18.3555 236.04C18.3555 236.04 18.4204 236.234 18.6798 236.558C18.9393 236.882 19.3933 237.271 20.0419 237.595C20.6905 237.919 21.5337 238.179 22.5066 238.179C23.4795 238.243 24.5173 238.114 25.5551 237.854C26.5929 237.66 27.6306 237.336 28.5387 237.206C29.4467 237.012 30.2899 236.947 31.0034 237.012C32.4303 237.012 33.2087 237.466 33.2087 237.401Z" fill="#F5F5F5"/>
<path d="M19.0042 244.206C19.0042 244.271 19.7176 243.752 20.95 244.011C21.5337 244.141 22.2472 244.4 22.9607 244.789C23.739 245.113 24.647 245.437 25.62 245.502C27.5658 245.697 29.317 245.048 30.4197 244.4C30.9386 244.076 31.3277 243.752 31.5872 243.493C31.8466 243.234 31.9763 243.104 31.9115 243.039C31.8466 242.974 31.3277 243.558 30.2251 244.206C29.1225 244.789 27.4361 245.372 25.5551 245.178C23.6741 245.048 22.1823 243.947 20.8851 243.817C20.2365 243.752 19.7176 243.817 19.3933 243.947C19.1987 244.076 19.0042 244.206 19.0042 244.206Z" fill="#F5F5F5"/>
<path d="M20.1716 253.733C20.1716 253.798 20.8202 253.798 21.858 253.409C22.8958 253.085 24.1281 252.307 25.5551 251.724C26.2686 251.465 27.0469 251.27 27.6955 251.27C28.3441 251.27 28.9279 251.465 29.3819 251.659C30.2899 252.113 30.5494 252.761 30.6142 252.696C30.6142 252.696 30.6142 252.502 30.4197 252.307C30.2899 252.048 29.9656 251.724 29.5116 251.465C29.0576 251.205 28.409 251.011 27.6955 250.946C26.982 250.946 26.2037 251.076 25.4254 251.4C23.9336 251.983 22.7012 252.761 21.7283 253.15C20.7554 253.539 20.1716 253.668 20.1716 253.733Z" fill="#F5F5F5"/>
<path d="M21.1445 258.14C21.1445 258.205 21.5986 258.335 22.4417 258.529C23.2201 258.723 24.3876 258.918 25.6199 259.048C26.8523 259.177 28.0198 259.177 28.7981 259.112C29.6413 259.047 30.0953 258.983 30.0953 258.983C30.0953 258.853 28.0847 258.983 25.6199 258.723C23.0904 258.529 21.1445 258.011 21.1445 258.14Z" fill="#F5F5F5"/>
<path d="M426.525 13.2213L389.684 0L353.233 13.0269C348.563 15.2305 344.476 16.5267 344.476 20.869V42.4509C344.476 57.4221 348.433 72.2637 356.476 85.4202C363.286 96.438 373.793 107.78 390.009 115.039C404.927 110.178 416.018 97.2805 422.828 86.2627C430.936 73.171 434.828 58.3294 434.828 43.2934V23.9151C434.892 17.6933 431.649 14.712 426.525 13.2213Z" fill="#F5F5F5"/>
<path d="M390.074 102.465C377.231 96.762 368.929 87.559 363.545 78.8744C357.124 68.5047 354.011 56.774 354.011 44.9137V29.748C354.011 26.3131 356.086 23.1373 360.173 21.193L389.684 10.1752V0L353.233 13.0269C349.406 14.712 344.476 16.5267 344.476 20.869V42.4509C344.476 57.4221 348.433 72.2637 356.476 85.4202C363.286 96.438 373.793 107.78 390.009 115.039V102.465H390.074Z" fill="#EBEBEB"/>
<path d="M390.074 115.039C392.668 114.196 395.003 113.159 397.338 111.928C403.435 108.622 408.689 104.021 412.645 99.873C417.121 95.2714 420.428 90.2162 423.282 85.5498C431.39 72.4581 435.282 57.6165 434.957 42.1916V24.3687C434.957 15.4897 430.352 14.8416 426.525 13.1565L389.684 0V10.1752L419.52 21.3875C423.607 23.3318 425.682 26.5075 425.682 29.9424V45.1081C425.682 56.9684 422.569 68.6991 416.148 79.0688C410.764 87.8182 402.786 96.8269 389.944 102.53V115.039H390.074Z" fill="#F0F1F2"/>
<path d="M399.478 43.9415L399.543 41.0251C399.543 35.7754 395.262 31.4979 390.009 31.4979C384.755 31.4979 380.474 35.7754 380.474 41.0251L380.409 44.0063C377.815 44.3952 375.869 46.5988 375.869 49.256V66.4308C375.869 69.4121 378.269 71.7452 381.188 71.7452H399.024C402.008 71.7452 404.343 69.3472 404.343 66.4308V49.256C404.343 46.4691 402.203 44.2008 399.478 43.9415ZM392.473 62.1533H387.803L388.517 58.7831C387.739 58.2647 387.155 57.3573 387.155 56.3851C387.155 54.8297 388.452 53.5335 390.009 53.5335C391.565 53.5335 392.863 54.8297 392.863 56.3851C392.863 57.3573 392.344 58.2647 391.63 58.7183C391.955 60.0145 392.473 62.1533 392.473 62.1533ZM397.403 43.8767H382.42L382.485 40.9603C382.485 36.8124 385.858 33.4422 390.009 33.4422C394.16 33.4422 397.533 36.8124 397.533 40.8954L397.403 43.8767Z" fill="#F0F1F2"/>
<path d="M359.978 43.7471C359.913 43.7471 359.654 42.6453 359.394 40.7658C359.2 38.8863 359.005 36.2939 359.07 33.4422C359.135 32.0164 359.2 30.6554 359.329 29.424C359.459 28.1926 359.654 27.026 360.173 26.1835C360.627 25.3409 361.275 24.8224 361.794 24.5632C362.313 24.304 362.637 24.3688 362.637 24.3688C362.702 24.4336 361.405 24.6928 360.627 26.3779C360.238 27.1556 360.043 28.2574 359.978 29.4888C359.913 30.7202 359.784 32.0812 359.784 33.5071C359.719 36.3587 359.784 38.8863 359.913 40.7658C359.978 42.5805 360.043 43.6823 359.978 43.7471Z" fill="white"/>
<path d="M360.534 53.1434C360.713 53.1399 360.841 52.2377 360.819 51.1283C360.797 50.0189 360.634 49.1224 360.455 49.126C360.276 49.1295 360.149 50.0317 360.17 51.141C360.192 52.2504 360.355 53.1469 360.534 53.1434Z" fill="white"/>
<path d="M443 266.76C443 266.825 344.022 266.954 221.889 266.954C99.7561 266.954 0.77832 266.889 0.77832 266.76C0.77832 266.63 99.7561 266.565 221.889 266.565C344.022 266.63 443 266.695 443 266.76Z" fill="#263238"/>
<path d="M364.129 18.3414H82.6327C77.7681 18.3414 73.8765 22.2948 73.8765 27.0908V225.735C73.8765 230.596 77.833 234.484 82.6327 234.484H190.691C190.691 234.484 197.566 255.742 176.292 266.695H277.28C277.28 266.695 253.217 258.464 259.444 234.484H364.194C369.058 234.484 372.95 230.531 372.95 225.735V27.0908C372.885 22.23 368.994 18.3414 364.129 18.3414Z" fill="#455A64"/>
<path d="M227.143 213.615C230.97 219.059 225.002 225.087 219.489 221.263C219.295 221.133 219.165 221.004 219.035 220.809C215.208 215.365 221.176 209.338 226.689 213.162C226.883 213.291 227.013 213.421 227.143 213.615Z" fill="#263238"/>
<path d="M368.021 198.19H78.741V28.2574C78.741 24.7576 81.5301 21.9708 85.0325 21.9708H361.794C365.297 21.9708 368.086 24.7576 368.086 28.2574V198.19H368.021Z" fill="white"/>
<path d="M368.021 36.6179H78.741V27.8685C78.741 24.5632 81.4003 21.9059 84.7082 21.9059H363.221C365.945 21.9059 368.086 24.1095 368.086 26.7667V36.6179H368.021Z" fill="#EBEBEB"/>
<path d="M87.9513 31.5627C89.0618 31.5627 89.962 30.6632 89.962 29.5536C89.962 28.444 89.0618 27.5445 87.9513 27.5445C86.8408 27.5445 85.9406 28.444 85.9406 29.5536C85.9406 30.6632 86.8408 31.5627 87.9513 31.5627Z" fill="#F0F1F2"/>
<path d="M93.9834 31.5627C95.0939 31.5627 95.9941 30.6632 95.9941 29.5536C95.9941 28.444 95.0939 27.5445 93.9834 27.5445C92.8729 27.5445 91.9727 28.444 91.9727 29.5536C91.9727 30.6632 92.8729 31.5627 93.9834 31.5627Z" fill="#F0F1F2"/>
<path d="M99.756 31.5627C100.866 31.5627 101.767 30.6632 101.767 29.5536C101.767 28.444 100.866 27.5445 99.756 27.5445C98.6455 27.5445 97.7453 28.444 97.7453 29.5536C97.7453 30.6632 98.6455 31.5627 99.756 31.5627Z" fill="#F0F1F2"/>
<path d="M313.797 234.549C313.797 234.614 273.778 234.744 224.354 234.744C174.93 234.744 134.911 234.679 134.911 234.549C134.911 234.484 174.93 234.355 224.354 234.355C273.713 234.355 313.797 234.42 313.797 234.549Z" fill="#263238"/>
<path d="M268.07 61.3755L223.965 45.1081L180.248 61.1163C174.67 63.8383 169.806 65.4586 169.806 70.773V97.2805C169.806 115.687 174.541 133.963 184.205 150.036C192.377 163.582 204.96 177.516 224.419 186.395C242.255 180.432 255.617 164.619 263.724 151.073C273.389 134.935 278.123 116.724 278.123 98.3175V74.5321C278.123 66.9492 274.167 63.1902 268.07 61.3755Z" fill="#1a9a67"/>
<g opacity="0.8">
<g opacity="0.8">
<g opacity="0.8">
<path opacity="0.8" d="M268.07 61.3755L223.965 45.1081L180.248 61.1163C174.67 63.8383 169.806 65.4586 169.806 70.773V97.2805C169.806 115.687 174.541 133.963 184.205 150.036C192.377 163.582 204.96 177.516 224.419 186.395C242.255 180.432 255.617 164.619 263.724 151.073C273.389 134.935 278.123 116.724 278.123 98.3175V74.5321C278.123 66.9492 274.167 63.1902 268.07 61.3755Z" fill="white"/>
</g>
</g>
</g>
<path d="M250.882 128.519H242.774V84.4481C242.774 74.0784 234.342 65.6531 223.965 65.6531C213.587 65.6531 205.155 74.0784 205.155 84.4481V128.519H197.047V84.4481C197.047 69.6065 209.111 57.5518 223.965 57.5518C238.818 57.5518 250.882 69.6065 250.882 84.4481V128.519Z" fill="#1a9a67"/>
<g opacity="0.4">
<g opacity="0.4">
<path opacity="0.4" d="M250.882 128.519H242.774V84.4481C242.774 74.0784 234.342 65.6531 223.965 65.6531C213.587 65.6531 205.155 74.0784 205.155 84.4481V128.519H197.047V84.4481C197.047 69.6065 209.111 57.5518 223.965 57.5518C238.818 57.5518 250.882 69.6065 250.882 84.4481V128.519Z" fill="black"/>
</g>
</g>
<path d="M256.525 155.416H191.404C189.329 155.416 187.642 153.731 187.642 151.657V112.641C187.642 110.567 189.329 108.882 191.404 108.882H256.46C258.535 108.882 260.222 110.567 260.222 112.641V151.657C260.287 153.731 258.6 155.416 256.525 155.416Z" fill="#1a9a67"/>
<path d="M191.534 151.073C191.713 151.073 191.858 143.297 191.858 133.704C191.858 124.111 191.713 116.335 191.534 116.335C191.355 116.335 191.21 124.111 191.21 133.704C191.21 143.297 191.355 151.073 191.534 151.073Z" fill="#FAFAFA"/>
<path d="M278.513 176.22C278.513 176.22 278.707 175.96 279.032 175.507C279.096 175.377 279.226 175.248 279.356 175.118C279.486 174.988 279.55 174.794 279.68 174.599C279.875 174.211 280.134 173.822 280.329 173.238C280.458 172.979 280.588 172.72 280.653 172.396C280.718 172.072 280.848 171.748 280.912 171.424C281.042 171.1 281.107 170.711 281.107 170.322C281.172 169.933 281.237 169.544 281.302 169.155C281.496 167.535 281.367 165.591 281.042 163.452C280.394 159.175 278.577 154.184 275.788 148.74C272.999 143.296 269.238 137.398 264.568 131.306C259.898 125.214 254.32 118.862 247.833 112.511C241.347 106.16 234.083 99.8081 225.846 93.7808C221.759 90.7995 217.414 87.8182 212.873 85.0962C208.333 82.3093 203.533 79.7817 198.474 77.5133C193.415 75.3098 188.032 73.3655 182.454 72.4581C179.665 72.0044 176.746 71.81 173.892 72.2637C172.465 72.4581 171.103 72.847 169.741 73.4303C168.444 74.0784 167.276 74.9209 166.303 75.9579C165.33 77.0597 164.682 78.3559 164.163 79.7169C163.709 81.0779 163.514 82.5037 163.449 83.9296C163.32 86.7812 163.903 89.6329 164.617 92.4197C166.174 97.9286 168.703 102.984 171.427 107.78C174.216 112.576 177.33 117.048 180.573 121.26C183.816 125.473 187.253 129.427 190.691 133.186C197.631 140.639 204.766 147.185 211.836 152.888C218.905 158.591 225.781 163.452 232.397 167.341C239.012 171.294 245.304 174.405 251.012 176.479C256.719 178.618 261.908 179.849 266.254 179.979C268.394 180.044 270.34 179.979 271.962 179.59C272.351 179.525 272.74 179.395 273.129 179.266C273.518 179.136 273.843 179.071 274.167 178.942C274.491 178.812 274.816 178.682 275.075 178.553C275.334 178.423 275.594 178.229 275.853 178.099C276.372 177.84 276.761 177.516 277.086 177.257C277.28 177.127 277.41 176.997 277.54 176.933C277.669 176.803 277.799 176.673 277.864 176.609C278.253 176.414 278.513 176.22 278.513 176.22C278.513 176.22 278.318 176.414 277.864 176.868C277.734 176.997 277.669 177.062 277.54 177.192C277.41 177.321 277.215 177.451 277.086 177.581C276.761 177.84 276.372 178.164 275.853 178.423C275.594 178.553 275.334 178.747 275.075 178.877C274.751 179.007 274.491 179.136 274.167 179.266C273.843 179.395 273.518 179.525 273.129 179.59C272.74 179.655 272.351 179.849 271.962 179.914C270.34 180.303 268.394 180.432 266.254 180.368C261.908 180.238 256.719 179.007 251.012 176.933C245.239 174.859 238.947 171.748 232.332 167.794C225.716 163.841 218.776 159.045 211.706 153.342C204.636 147.638 197.501 141.092 190.496 133.639C187.059 129.88 183.621 125.927 180.378 121.714C177.135 117.501 174.022 113.029 171.168 108.233C168.379 103.438 165.849 98.3175 164.293 92.8086C163.514 90.0217 162.995 87.1701 163.125 84.2536C163.19 82.763 163.385 81.3371 163.839 79.9113C164.357 78.4855 165.071 77.1893 166.044 76.0875C167.082 74.9857 168.314 74.1432 169.611 73.4951C170.973 72.9118 172.4 72.5229 173.827 72.2637C176.746 71.81 179.665 72.0692 182.518 72.4581C188.226 73.3655 193.545 75.3098 198.669 77.5133C203.728 79.7817 208.593 82.3093 213.133 85.0962C217.673 87.883 222.019 90.7995 226.105 93.7808C234.278 99.8081 241.607 106.224 248.093 112.576C254.514 118.927 260.157 125.279 264.827 131.436C269.497 137.593 273.259 143.426 276.048 148.934C278.772 154.379 280.588 159.434 281.237 163.711C281.561 165.85 281.626 167.794 281.496 169.415C281.496 169.803 281.367 170.192 281.302 170.581C281.237 170.97 281.172 171.294 281.042 171.683C280.977 172.007 280.848 172.331 280.783 172.655C280.653 172.979 280.523 173.238 280.458 173.498C280.264 174.016 280.004 174.47 279.745 174.859C279.615 175.053 279.55 175.248 279.421 175.377C279.291 175.507 279.226 175.636 279.096 175.766C278.707 175.96 278.513 176.22 278.513 176.22Z" fill="#1a9a67"/>
<path d="M299.268 126.121C299.268 126.121 299.268 125.797 299.203 125.214C299.203 125.084 299.203 124.89 299.138 124.695C299.138 124.501 299.074 124.307 299.009 124.112C298.944 123.723 298.814 123.205 298.619 122.686C298.49 122.427 298.425 122.103 298.295 121.844C298.165 121.585 298.036 121.26 297.841 120.936C297.711 120.612 297.517 120.288 297.322 119.964C297.128 119.64 296.933 119.316 296.674 118.992C295.701 117.631 294.339 116.27 292.717 114.909C289.409 112.187 284.739 109.659 279.031 107.391C273.324 105.187 266.578 103.308 259.054 101.817C251.466 100.327 243.099 99.3545 234.083 98.9008C225.067 98.4472 215.338 98.5768 205.22 99.5489C200.161 100.003 194.972 100.716 189.718 101.688C184.464 102.66 179.211 103.956 173.892 105.641C168.638 107.391 163.385 109.465 158.585 112.576C156.185 114.131 153.915 115.881 152.034 118.085C151.126 119.187 150.347 120.418 149.764 121.714C149.245 123.075 148.921 124.436 148.856 125.927C148.856 127.353 149.18 128.778 149.764 130.139C150.347 131.436 151.126 132.667 152.034 133.769C153.85 135.972 156.185 137.787 158.585 139.278C163.385 142.324 168.638 144.463 173.892 146.212C179.146 147.898 184.464 149.194 189.718 150.166C194.972 151.138 200.161 151.851 205.22 152.305C215.338 153.277 225.067 153.342 234.083 152.953C243.099 152.499 251.53 151.527 259.054 150.036C266.578 148.546 273.324 146.731 279.031 144.463C284.739 142.259 289.409 139.731 292.717 136.945C294.404 135.584 295.766 134.223 296.674 132.862C296.933 132.537 297.128 132.213 297.322 131.889C297.517 131.565 297.711 131.241 297.841 130.917C297.971 130.593 298.165 130.334 298.295 130.01C298.425 129.686 298.49 129.427 298.619 129.167C298.814 128.649 298.944 128.13 299.009 127.742C299.074 127.547 299.074 127.353 299.138 127.158C299.138 126.964 299.138 126.834 299.203 126.705C299.203 126.38 299.268 126.121 299.268 126.121C299.268 126.121 299.268 126.445 299.203 127.029C299.203 127.158 299.203 127.353 299.203 127.547C299.203 127.742 299.138 127.936 299.074 128.13C299.009 128.584 298.879 129.038 298.684 129.556C298.619 129.815 298.49 130.139 298.36 130.399C298.23 130.658 298.101 130.982 297.906 131.306C297.776 131.63 297.582 131.954 297.387 132.278C297.193 132.602 296.998 132.926 296.739 133.25C295.766 134.611 294.404 135.972 292.782 137.333C289.474 140.12 284.739 142.648 279.096 144.916C273.389 147.185 266.643 149.064 259.054 150.555C251.466 152.045 243.099 153.018 234.018 153.471C224.937 153.925 215.273 153.795 205.09 152.888C200.031 152.434 194.842 151.721 189.588 150.749C184.335 149.777 179.016 148.481 173.762 146.796C168.509 145.046 163.19 142.907 158.325 139.861C155.926 138.306 153.591 136.491 151.71 134.223C150.801 133.121 149.958 131.825 149.375 130.464C148.791 129.103 148.466 127.612 148.466 126.121C148.466 124.631 148.856 123.14 149.375 121.779C149.958 120.418 150.801 119.187 151.71 118.085C153.591 115.816 155.926 114.066 158.325 112.511C163.19 109.4 168.444 107.261 173.697 105.576C178.951 103.891 184.27 102.595 189.523 101.623C194.777 100.651 199.966 99.9378 205.025 99.4841C215.208 98.512 224.873 98.4472 233.953 98.9008C243.034 99.3545 251.401 100.327 258.989 101.817C266.578 103.308 273.324 105.187 279.031 107.456C284.739 109.724 289.409 112.252 292.717 115.039C294.404 116.4 295.766 117.761 296.674 119.122C296.933 119.446 297.128 119.835 297.322 120.094C297.517 120.418 297.711 120.742 297.841 121.066C297.971 121.39 298.165 121.714 298.295 121.973C298.425 122.297 298.49 122.557 298.619 122.816C298.814 123.334 298.879 123.853 299.009 124.242C299.074 124.436 299.074 124.631 299.138 124.825C299.138 125.019 299.138 125.149 299.138 125.344C299.268 125.797 299.268 126.121 299.268 126.121Z" fill="#1a9a67"/>
<path d="M271.767 63.7735C271.767 63.7735 271.508 63.6439 271.054 63.3198C270.924 63.255 270.794 63.1254 270.664 63.0606C270.535 62.9958 270.34 62.8662 270.146 62.8014C269.756 62.6069 269.302 62.4125 268.783 62.2181C268.524 62.1533 268.265 62.0236 267.94 61.9588C267.616 61.894 267.292 61.8292 266.967 61.7644C266.643 61.6996 266.254 61.6348 265.865 61.6348C265.476 61.6348 265.086 61.5052 264.697 61.57C263.011 61.5052 261.13 61.7644 259.054 62.2181C254.838 63.1902 249.974 65.329 244.72 68.4399C239.466 71.5508 233.888 75.7635 228.116 80.8187C222.343 85.8739 216.376 91.9013 210.538 98.7712C204.636 105.641 198.799 113.354 193.35 121.973C190.626 126.251 188.032 130.788 185.567 135.519C183.102 140.25 180.897 145.24 179.016 150.425C177.2 155.61 175.643 161.119 175.124 166.757C174.865 169.609 174.865 172.461 175.513 175.312C175.838 176.738 176.292 178.099 177.005 179.331C177.719 180.562 178.627 181.729 179.794 182.636C180.962 183.478 182.259 184.127 183.686 184.515C185.113 184.84 186.54 184.969 187.967 184.969C190.821 184.904 193.675 184.127 196.334 183.219C201.717 181.275 206.647 178.423 211.187 175.377C215.792 172.266 220.008 168.831 223.965 165.332C227.921 161.767 231.683 158.138 235.186 154.443C242.126 146.99 248.158 139.407 253.347 132.019C258.535 124.631 262.881 117.372 266.384 110.502C269.886 103.632 272.545 97.1509 274.232 91.318C275.983 85.485 276.826 80.2354 276.697 75.8931C276.632 73.7543 276.372 71.81 275.918 70.2546C275.853 69.8657 275.659 69.4768 275.529 69.1528C275.399 68.7639 275.27 68.4399 275.14 68.1158C275.01 67.7918 274.816 67.5325 274.686 67.2085C274.556 66.9492 274.361 66.69 274.232 66.4308C273.972 65.9123 273.583 65.5882 273.324 65.2642C273.194 65.0697 273.064 64.9401 272.935 64.8105C272.805 64.6809 272.675 64.5512 272.545 64.4864C271.962 63.968 271.767 63.7735 271.767 63.7735C271.767 63.7735 272.027 63.968 272.416 64.3568C272.545 64.4216 272.675 64.5513 272.805 64.6809C272.935 64.8105 273.064 64.9401 273.194 65.1345C273.453 65.4586 273.843 65.8475 274.102 66.3011C274.232 66.5604 274.426 66.7548 274.621 67.0789C274.751 67.3381 274.88 67.6622 275.075 67.9862C275.27 68.3103 275.399 68.6343 275.529 69.0232C275.659 69.412 275.853 69.7361 275.918 70.1249C276.437 71.7452 276.632 73.6247 276.761 75.7635C276.891 80.1058 276.048 85.3554 274.362 91.2532C272.675 97.1509 270.016 103.632 266.513 110.502C263.076 117.372 258.665 124.631 253.476 132.084C248.287 139.537 242.255 147.12 235.315 154.573C231.813 158.267 228.116 161.961 224.094 165.526C220.138 169.091 215.857 172.461 211.252 175.636C206.647 178.747 201.717 181.599 196.334 183.543C193.61 184.515 190.756 185.228 187.837 185.293C186.345 185.358 184.918 185.228 183.426 184.84C182 184.451 180.637 183.803 179.405 182.895C178.238 181.988 177.265 180.821 176.551 179.525C175.838 178.229 175.384 176.803 175.059 175.377C174.411 172.526 174.411 169.609 174.67 166.757C175.189 161.054 176.746 155.545 178.627 150.36C180.508 145.111 182.778 140.185 185.178 135.454C187.642 130.723 190.237 126.186 192.961 121.909C198.409 113.289 204.312 105.576 210.214 98.7064C216.116 91.8365 222.084 85.8091 227.856 80.7539C233.629 75.6987 239.272 71.486 244.525 68.3751C249.779 65.2642 254.709 63.1254 258.925 62.2181C261 61.7644 262.946 61.5052 264.632 61.57C265.022 61.57 265.476 61.6348 265.8 61.6348C266.189 61.6996 266.578 61.6996 266.903 61.7644C267.227 61.8292 267.551 61.894 267.875 61.9588C268.2 62.0236 268.459 62.1533 268.719 62.2181C269.237 62.3477 269.692 62.6069 270.081 62.8014C270.275 62.931 270.47 62.9958 270.6 63.0606C270.729 63.1902 270.859 63.255 270.989 63.3198C271.508 63.5791 271.767 63.7735 271.767 63.7735Z" fill="#1a9a67"/>
<path d="M147.86 161.128C148.949 160.04 148.949 158.275 147.86 157.187C146.771 156.098 145.005 156.098 143.916 157.187C142.827 158.275 142.827 160.04 143.916 161.128C145.005 162.216 146.771 162.216 147.86 161.128Z" fill="#1a9a67"/>
<path d="M302.835 73.3655C304.376 73.3655 305.624 72.1178 305.624 70.5786C305.624 69.0395 304.376 67.7918 302.835 67.7918C301.295 67.7918 300.046 69.0395 300.046 70.5786C300.046 72.1178 301.295 73.3655 302.835 73.3655Z" fill="#1a9a67"/>
<path d="M164.811 167.081C165.205 167.081 165.525 166.762 165.525 166.368C165.525 165.975 165.205 165.656 164.811 165.656C164.417 165.656 164.098 165.975 164.098 166.368C164.098 166.762 164.417 167.081 164.811 167.081Z" fill="#1a9a67"/>
<path d="M179.989 88.7904C180.383 88.7904 180.702 88.4712 180.702 88.0775C180.702 87.6837 180.383 87.3646 179.989 87.3646C179.595 87.3646 179.275 87.6837 179.275 88.0775C179.275 88.4712 179.595 88.7904 179.989 88.7904Z" fill="#1a9a67"/>
<path d="M290.836 126.834C291.23 126.834 291.55 126.515 291.55 126.121C291.55 125.727 291.23 125.408 290.836 125.408C290.442 125.408 290.123 125.727 290.123 126.121C290.123 126.515 290.442 126.834 290.836 126.834Z" fill="#1a9a67"/>
<path d="M300.76 93.7159C301.154 93.7159 301.473 93.3967 301.473 93.003C301.473 92.6093 301.154 92.2901 300.76 92.2901C300.366 92.2901 300.046 92.6093 300.046 93.003C300.046 93.3967 300.366 93.7159 300.76 93.7159Z" fill="#1a9a67"/>
<path d="M415.694 199.033C418.807 197.089 422.374 195.857 426.071 195.468C427.758 195.274 429.639 195.339 430.936 196.376C431.195 196.57 431.52 196.894 431.455 197.283C431.39 197.542 431.195 197.737 431.001 197.866C426.785 201.107 420.428 201.496 415.694 199.033Z" fill="#1a9a67"/>
<path d="M415.953 198.774C418.288 196.959 420.623 195.08 422.634 192.876C424.644 190.672 426.201 188.015 426.85 185.164C427.044 184.256 427.109 183.284 426.525 182.571C421.207 186.719 416.991 192.098 415.953 198.774Z" fill="#1a9a67"/>
<path d="M415.758 198.968C416.148 196.052 416.277 193.07 415.629 190.219C414.98 187.367 413.423 184.645 410.959 182.96C410.051 185.099 410.44 187.562 411.088 189.83C412.061 193.33 413.683 196.635 415.694 199.551" fill="#1a9a67"/>
<path d="M410.57 208.366C413.748 208.755 416.472 210.44 418.872 212.578C421.272 214.717 422.893 217.634 423.607 220.745C420.493 220.55 417.834 218.347 415.953 215.884C414.007 213.421 412.71 210.699 410.57 208.366Z" fill="#1a9a67"/>
<path d="M409.402 209.856C411.932 203.57 411.024 195.987 407.067 190.478C405.251 196.894 405.9 204.153 409.402 209.856Z" fill="#1a9a67"/>
<path d="M402.527 218.087C405.381 217.893 408.299 218.606 410.829 220.032C413.359 221.457 415.369 223.661 416.667 226.253C416.861 226.577 416.991 227.031 416.731 227.355C416.537 227.614 416.148 227.679 415.823 227.614C413.034 227.42 410.57 225.735 408.494 223.855C406.483 221.911 404.732 219.708 402.527 218.087Z" fill="#1a9a67"/>
<path d="M402.721 217.634C404.213 212.902 404.278 207.718 402.981 202.922C402.462 201.042 401.619 199.033 399.868 198.126C399.738 198.061 399.543 197.996 399.413 198.061C399.284 198.126 399.154 198.255 399.089 198.385C398.441 199.681 398.311 201.172 398.376 202.598C398.441 204.023 398.765 205.449 399.024 206.875C399.608 209.467 399.868 212.319 401.294 214.523C401.619 215.041 401.943 215.624 402.203 216.208C402.462 216.791 402.462 216.985 402.721 217.439" fill="#1a9a67"/>
<path d="M384.496 220.356C385.858 215.236 384.431 208.949 381.188 204.736C380.928 204.412 380.604 204.088 380.215 204.153C379.631 204.218 379.436 204.996 379.501 205.579C379.696 210.829 381.447 216.013 384.496 220.356Z" fill="#1a9a67"/>
<path d="M382.809 221.457C376.583 223.078 369.383 221.522 364.194 217.698C367.307 216.143 370.94 215.689 374.312 216.467C377.62 217.18 380.734 218.735 382.809 221.457Z" fill="#1a9a67"/>
<path d="M381.447 218.022C377.945 212.319 371.199 208.56 364.518 208.236C365.297 210.958 367.502 213.097 370.032 214.328C372.561 215.624 375.35 216.143 378.139 216.726C379.242 216.921 380.734 217.18 381.447 218.022Z" fill="#1a9a67"/>
<path d="M384.106 201.431C383.133 198.19 382.225 194.885 381.966 191.515C381.706 188.145 382.161 184.645 383.912 181.729C387.155 188.08 387.544 195.468 384.171 201.755" fill="#1a9a67"/>
<path d="M373.08 195.857C369.253 188.923 361.47 183.349 353.557 182.571C356.605 190.154 364.908 195.987 373.08 195.857Z" fill="#1a9a67"/>
<path d="M375.48 197.218C369.772 198.061 364.908 201.755 359.589 203.959C358.421 204.412 357.189 204.801 356.022 204.672C354.789 204.542 353.622 203.699 353.297 202.468C353.038 201.496 353.557 200.394 354.27 199.681C354.984 198.968 355.957 198.515 356.865 198.126C362.702 195.728 368.929 195.663 375.026 197.089" fill="#1a9a67"/>
<path d="M378.788 201.237C377.491 201.625 377.037 202.274 375.999 203.116C372.496 206.097 368.345 208.236 363.935 209.338C363.481 209.467 362.897 209.467 362.637 209.079C362.443 208.69 362.702 208.301 362.962 207.977C364.843 205.644 367.437 204.088 370.226 203.051C373.015 202.014 375.415 200.783 378.723 201.042" fill="#1a9a67"/>
<path d="M382.55 177.062C377.88 181.405 371.394 183.608 365.037 183.025C364.778 183.025 364.453 182.96 364.259 182.766C363.805 182.312 364.324 181.534 364.843 181.145C369.967 177.062 376.193 175.442 382.55 177.062Z" fill="#1a9a67"/>
<path d="M378.139 175.442C371.977 170.84 363.61 169.479 356.281 171.813C359.005 174.535 362.832 175.96 366.659 176.349C370.55 176.803 374.377 176.349 378.139 175.442Z" fill="#1a9a67"/>
<path d="M379.89 164.359C380.409 159.239 380.085 155.156 380.409 150.036C380.409 149.647 380.539 149.129 380.928 148.999C381.447 148.805 381.901 149.453 382.096 149.971C383.652 154.703 382.809 160.147 379.89 164.23" fill="#1a9a67"/>
<path d="M380.215 164.878C376.712 162.739 374.118 159.887 371.718 156.647C370.032 154.379 368.605 151.592 368.994 148.805C371.329 148.74 373.599 150.036 375.156 151.851C376.712 153.666 377.62 155.869 378.269 158.138C378.982 160.341 379.436 162.674 380.215 164.878Z" fill="#1a9a67"/>
<path d="M371.912 162.61C364.259 159.758 357.124 155.61 350.962 150.296C353.492 149.259 356.346 149.907 358.811 150.879C364.518 153.212 369.188 157.101 371.977 162.545" fill="#1a9a67"/>
<path d="M377.88 167.73C373.988 168.183 370.096 168.442 366.27 167.794C362.508 167.146 358.94 165.656 355.438 164.165C355.178 164.035 354.854 163.906 354.724 163.582C354.595 163.258 354.724 162.869 354.984 162.674C355.243 162.415 355.568 162.35 355.892 162.221C359.719 161.119 363.87 161.637 367.632 162.934C371.394 164.23 374.442 165.72 377.88 167.73Z" fill="#1a9a67"/>
<path d="M399.932 177.192C402.592 171.877 402.397 165.656 400.127 160.212C398.505 162.674 398.311 165.785 398.635 168.637C398.959 171.553 399.803 174.535 399.868 177.451" fill="#1a9a67"/>
<path d="M410.505 171.942C417.056 171.813 423.672 174.599 428.147 179.46C424.839 179.979 421.466 179.136 418.483 177.646C415.499 176.22 412.84 174.146 410.18 172.137" fill="#1a9a67"/>
<path d="M417.575 169.544C420.818 169.285 423.866 168.896 426.979 169.803C430.093 170.776 432.882 172.914 434.179 175.896C431.195 176.22 428.082 175.507 425.358 174.211C422.569 172.979 420.039 171.294 417.575 169.544Z" fill="#1a9a67"/>
<path d="M407.067 169.674C409.986 167.794 412.969 165.85 416.342 165.072C419.715 164.295 423.607 164.878 426.006 167.406C423.282 169.026 419.974 169.22 416.796 169.22C413.618 169.22 409.726 169.155 406.743 170.257" fill="#1a9a67"/>
<path d="M407.067 169.803C411.997 164.943 413.878 156.193 411.932 149.583C408.04 155.48 406.289 162.804 407.067 169.803Z" fill="#1a9a67"/>
<path d="M393.446 156.064C392.538 153.925 391.825 151.592 391.046 149.388C390.268 147.185 389.165 144.981 387.609 143.231C386.052 141.481 383.847 140.185 381.447 140.055C382.939 146.731 387.349 152.694 393.381 156.064" fill="#1a9a67"/>
<path d="M395.911 158.915C397.468 156.777 399.219 153.925 401.359 152.305C403.435 150.749 406.159 149.777 408.754 150.36C406.094 155.027 401.23 158.267 395.911 158.915Z" fill="#1a9a67"/>
<path d="M395.392 156.193C396.43 153.601 397.403 151.008 397.857 148.286C398.246 145.564 397.987 142.648 396.624 140.25C393.9 145.37 393.057 150.879 395.262 156.258" fill="#1a9a67"/>
<path d="M393.446 140.25C391.89 135.13 387.22 131.436 382.225 129.686C381.577 129.491 380.928 129.297 380.28 129.362C379.631 129.427 378.982 129.945 378.853 130.593C378.658 131.436 379.372 132.213 380.085 132.797C383.912 136.232 388.517 138.759 393.446 140.25Z" fill="#1a9a67"/>
<path d="M393.381 136.102C393.187 132.797 392.992 129.491 391.89 126.38C390.852 123.27 388.776 120.353 385.793 118.992C385.274 122.297 386.766 125.603 388.517 128.454C390.268 131.306 392.409 134.028 393.446 137.204" fill="#1a9a67"/>
<path d="M393.446 138.37C394.744 134.676 394.873 129.945 397.079 126.705C398.635 124.436 401.1 122.881 402.462 120.483C403.37 122.686 403.111 125.279 402.138 127.482C401.23 129.686 399.673 131.63 398.051 133.38C396.365 135.195 395.003 136.491 393.446 138.37Z" fill="#1a9a67"/>
<path d="M393.446 247.641C393.576 247.641 393.641 222.883 393.641 192.357C393.641 161.832 393.576 137.074 393.446 137.074C393.317 137.074 393.252 161.832 393.252 192.357C393.252 222.883 393.317 247.641 393.446 247.641Z" fill="#1a9a67"/>
<path d="M371.783 173.498C371.783 173.498 372.107 173.627 372.691 173.822C373.339 174.016 374.247 174.34 375.285 174.664C377.426 175.377 380.409 176.479 383.652 177.775C386.831 179.136 389.879 180.238 391.565 181.729C392.409 182.442 392.927 183.284 393.187 183.803C393.446 184.386 393.446 184.71 393.511 184.71C393.511 184.71 393.511 184.645 393.511 184.451C393.511 184.256 393.446 184.062 393.317 183.738C393.122 183.154 392.603 182.312 391.76 181.469C390.917 180.692 389.684 179.979 388.322 179.331C386.96 178.683 385.404 178.034 383.782 177.386C380.539 176.09 377.555 175.053 375.35 174.34C374.248 174.016 373.339 173.757 372.756 173.562C372.107 173.562 371.783 173.498 371.783 173.498Z" fill="#1a9a67"/>
<path d="M364.713 156.064C364.713 156.064 364.778 156.193 364.972 156.323C365.167 156.517 365.426 156.777 365.751 157.101C366.464 157.749 367.502 158.656 368.734 159.823C371.264 162.091 374.766 165.202 378.593 168.637C382.42 172.072 385.793 175.312 388.063 177.84C389.23 179.071 390.138 180.108 390.722 180.821C390.982 181.145 391.241 181.405 391.436 181.664C391.63 181.858 391.695 181.923 391.695 181.923C391.695 181.923 391.63 181.793 391.5 181.599C391.371 181.405 391.111 181.081 390.852 180.756C390.268 180.044 389.36 178.942 388.257 177.71C385.987 175.183 382.679 171.877 378.788 168.442C374.896 165.008 371.394 161.961 368.864 159.758C367.632 158.656 366.594 157.814 365.816 157.165C365.491 156.906 365.167 156.647 364.972 156.453C364.778 156.128 364.713 156.064 364.713 156.064Z" fill="#1a9a67"/>
<path d="M382.744 172.072C382.874 172.007 382.031 170.192 381.253 167.794C380.474 165.461 380.085 163.452 379.955 163.452C379.89 163.452 380.085 165.526 380.928 167.859C381.317 169.026 381.771 170.063 382.096 170.84C382.485 171.618 382.679 172.072 382.744 172.072Z" fill="#1a9a67"/>
<path d="M393.381 187.043C393.381 187.043 393.641 186.784 393.965 186.33C394.354 185.812 394.873 185.164 395.457 184.386C396.754 182.766 398.505 180.432 400.451 177.97C402.462 175.507 404.278 173.238 405.575 171.618C406.224 170.84 406.743 170.192 407.132 169.674C407.521 169.22 407.716 168.961 407.651 168.961C407.651 168.961 407.391 169.155 407.002 169.609C406.613 170.063 406.029 170.646 405.381 171.489C404.019 173.044 402.138 175.312 400.192 177.775C398.181 180.303 396.495 182.571 395.262 184.256C394.679 185.099 394.16 185.812 393.836 186.265C393.576 186.784 393.381 187.043 393.381 187.043Z" fill="#1a9a67"/>
<path d="M398.181 180.951C398.246 181.016 399.478 179.525 400.192 177.257C400.711 175.636 400.711 174.211 400.646 173.498H400.516C400.581 173.757 400.646 173.951 400.646 173.951C400.646 173.951 400.646 173.757 400.646 173.498H400.516C400.451 174.146 400.386 175.572 399.868 177.127C399.154 179.331 398.051 180.886 398.181 180.951Z" fill="#1a9a67"/>
<path d="M404.278 173.238C404.343 173.303 404.732 172.785 405.64 172.461C406.548 172.072 407.975 172.007 409.467 172.137C411.024 172.266 412.386 172.526 413.359 172.785C414.332 173.044 414.915 173.238 414.98 173.174C414.98 173.109 414.396 172.85 413.423 172.526C412.451 172.201 411.089 171.877 409.532 171.813C407.975 171.683 406.483 171.813 405.575 172.266C404.602 172.655 404.213 173.238 404.278 173.238Z" fill="#1a9a67"/>
<path d="M405.705 171.359C405.705 171.424 406.483 171.035 407.845 170.581C409.143 170.128 411.024 169.674 413.164 169.479C415.304 169.35 417.185 169.479 418.547 169.739C419.91 169.998 420.753 170.257 420.753 170.192C420.753 170.192 420.558 170.063 420.169 169.933C419.78 169.804 419.261 169.609 418.547 169.479C417.185 169.155 415.24 168.961 413.034 169.091C410.894 169.285 408.948 169.804 407.651 170.322C407.002 170.581 406.483 170.84 406.159 171.035C405.9 171.229 405.705 171.359 405.705 171.359Z" fill="#1a9a67"/>
<path d="M395.002 158.143C395.759 155.159 396.289 152.719 396.185 152.693C396.081 152.666 395.382 155.064 394.625 158.048C393.868 161.031 393.338 163.471 393.443 163.498C393.547 163.524 394.245 161.127 395.002 158.143Z" fill="#1a9a67"/>
<path d="M393.381 163.517C393.511 163.582 393.965 161.961 395.133 160.276C396.235 158.591 397.727 157.749 397.662 157.684C397.662 157.619 397.273 157.814 396.689 158.202C396.106 158.591 395.457 159.239 394.873 160.082C393.576 161.767 393.252 163.517 393.381 163.517Z" fill="#1a9a67"/>
<path d="M393.446 234.42C393.511 234.42 393.576 233.836 393.836 232.799C394.095 231.762 394.614 230.272 395.522 228.522C397.208 225.022 400.322 220.615 404.278 216.143C406.224 213.875 408.17 211.801 409.726 209.792C411.348 207.782 412.645 205.838 413.618 204.153C414.591 202.468 415.24 200.977 415.564 199.94C415.758 199.422 415.888 199.033 415.953 198.774C416.018 198.515 416.083 198.32 416.083 198.32C416.083 198.32 415.888 198.903 415.434 199.876C415.045 200.912 414.332 202.338 413.359 203.959C412.386 205.644 411.024 207.523 409.402 209.532C407.781 211.541 405.9 213.615 403.889 215.884C399.932 220.356 396.819 224.828 395.133 228.392C394.29 230.142 393.835 231.697 393.576 232.734C393.446 233.253 393.381 233.707 393.381 233.966C393.446 234.29 393.446 234.42 393.446 234.42Z" fill="#1a9a67"/>
<path d="M373.858 212.384C373.858 212.384 374.247 212.578 374.896 212.967C375.545 213.356 376.518 213.875 377.555 214.717C378.593 215.56 379.826 216.597 381.058 217.893C382.29 219.189 383.523 220.68 384.82 222.3C387.414 225.541 389.814 228.392 391.241 230.661C391.955 231.762 392.538 232.734 392.863 233.447C393.187 234.095 393.381 234.484 393.446 234.484C393.446 234.484 393.446 234.355 393.381 234.225C393.317 234.031 393.187 233.771 393.057 233.447C392.733 232.734 392.214 231.762 391.5 230.596C390.074 228.263 387.739 225.346 385.144 222.17C383.847 220.55 382.55 219.059 381.317 217.763C380.085 216.467 378.853 215.43 377.75 214.588C376.647 213.81 375.674 213.227 375.026 212.902C374.702 212.708 374.377 212.643 374.247 212.578C373.988 212.384 373.858 212.319 373.858 212.384Z" fill="#1a9a67"/>
<path d="M373.469 219.513C373.469 219.578 374.312 219.643 375.61 219.837C376.972 220.032 378.788 220.226 380.734 220.874C382.679 221.522 384.301 222.494 385.339 223.272C386.376 224.115 386.895 224.763 386.96 224.698C386.96 224.698 386.895 224.504 386.636 224.179C386.376 223.855 386.052 223.467 385.533 223.013C384.496 222.106 382.874 221.133 380.863 220.485C378.853 219.837 376.972 219.643 375.61 219.578C374.312 219.448 373.469 219.448 373.469 219.513Z" fill="#1a9a67"/>
<path d="M386.377 223.92C386.506 223.855 385.533 222.365 384.755 220.356C384.042 218.347 383.847 216.532 383.782 216.597C383.717 216.597 383.717 217.05 383.847 217.763C383.912 218.476 384.106 219.448 384.496 220.485C384.885 221.522 385.339 222.365 385.728 223.013C386.052 223.596 386.312 223.92 386.377 223.92Z" fill="#1a9a67"/>
<path d="M367.567 193.135C367.567 193.135 367.697 193.2 367.891 193.33C368.151 193.459 368.475 193.589 368.929 193.783C369.383 193.978 369.902 194.237 370.55 194.561C371.134 194.885 371.848 195.209 372.626 195.663C373.015 195.857 373.404 196.117 373.793 196.311C374.183 196.57 374.637 196.829 375.026 197.089C375.869 197.607 376.777 198.255 377.685 198.903C379.501 200.264 381.447 201.949 383.263 203.829C385.079 205.708 386.636 207.718 387.998 209.597C388.647 210.569 389.23 211.412 389.749 212.319C390.009 212.773 390.268 213.162 390.463 213.615C390.657 214.004 390.917 214.458 391.111 214.847C391.501 215.624 391.825 216.337 392.149 216.921C392.473 217.569 392.668 218.087 392.863 218.541C393.057 218.93 393.187 219.319 393.317 219.578C393.446 219.837 393.446 219.902 393.511 219.902C393.511 219.902 393.511 219.772 393.381 219.513C393.317 219.254 393.187 218.865 392.992 218.476C392.863 218.022 392.603 217.439 392.344 216.856C392.084 216.208 391.76 215.495 391.371 214.717C391.176 214.328 390.982 213.939 390.787 213.486C390.592 213.032 390.333 212.643 390.074 212.19C389.555 211.282 388.971 210.375 388.322 209.403C387.025 207.523 385.404 205.514 383.587 203.57C381.707 201.69 379.761 200.005 377.945 198.644C376.972 197.996 376.128 197.348 375.22 196.829C374.766 196.57 374.377 196.311 373.923 196.052C373.534 195.792 373.08 195.598 372.691 195.404C371.912 194.95 371.199 194.626 370.615 194.367C369.967 194.043 369.448 193.848 368.994 193.654C368.54 193.459 368.215 193.33 367.956 193.265C367.697 193.135 367.567 193.135 367.567 193.135Z" fill="#1a9a67"/>
<path d="M383.004 203.505C383.004 203.505 382.874 202.922 382.161 202.209C381.447 201.561 380.215 200.912 378.723 200.912C377.231 200.848 375.999 201.301 375.091 201.625C374.248 201.949 373.729 202.274 373.729 202.274C373.729 202.338 374.312 202.144 375.156 201.82C376.064 201.561 377.296 201.172 378.658 201.237C380.02 201.301 381.253 201.82 381.966 202.403C382.679 202.986 382.939 203.505 383.004 203.505Z" fill="#1a9a67"/>
<path d="M385.339 205.903C385.468 205.838 384.56 204.542 384.366 202.727C384.106 200.913 384.69 199.422 384.56 199.422C384.496 199.422 384.301 199.746 384.171 200.329C383.977 200.913 383.912 201.82 383.977 202.727C384.106 203.699 384.431 204.477 384.69 205.06C385.014 205.644 385.274 205.903 385.339 205.903Z" fill="#1a9a67"/>
<path d="M410.505 237.984C409.986 247.446 407.132 257.038 402.721 266.76H383.652C379.436 257.103 376.842 247.511 376.323 237.984H410.505Z" fill="#263238"/>
<path d="M393.511 253.474C401.249 253.474 407.521 253.387 407.521 253.279C407.521 253.172 401.249 253.085 393.511 253.085C385.774 253.085 379.501 253.172 379.501 253.279C379.501 253.387 385.774 253.474 393.511 253.474Z" fill="#FAFAFA"/>
<path d="M393.057 256.909C400.329 256.909 406.224 256.822 406.224 256.714C406.224 256.607 400.329 256.52 393.057 256.52C385.785 256.52 379.89 256.607 379.89 256.714C379.89 256.822 385.785 256.909 393.057 256.909Z" fill="#FAFAFA"/>
<path d="M402.462 252.955C402.569 252.955 402.657 250.982 402.657 248.548C402.657 246.114 402.569 244.141 402.462 244.141C402.355 244.141 402.267 246.114 402.267 248.548C402.267 250.982 402.355 252.955 402.462 252.955Z" fill="#FAFAFA"/>
<path d="M392.214 253.279C392.321 253.279 392.409 251.248 392.409 248.743C392.409 246.237 392.321 244.206 392.214 244.206C392.106 244.206 392.019 246.237 392.019 248.743C392.019 251.248 392.106 253.279 392.214 253.279Z" fill="#FAFAFA"/>
<path d="M382.615 253.409C382.722 253.409 382.809 251.32 382.809 248.743C382.809 246.165 382.722 244.076 382.615 244.076C382.507 244.076 382.42 246.165 382.42 248.743C382.42 251.32 382.507 253.409 382.615 253.409Z" fill="#FAFAFA"/>
<path d="M393.446 244.4C402.545 244.4 409.921 244.313 409.921 244.206C409.921 244.099 402.545 244.011 393.446 244.011C384.348 244.011 376.972 244.099 376.972 244.206C376.972 244.313 384.348 244.4 393.446 244.4Z" fill="#FAFAFA"/>
<path d="M47.9971 245.632L44.8838 261.381L38.9166 273.176C38.4625 274.019 38.8517 275.056 39.7597 275.445C40.2786 275.639 40.7975 275.639 41.2515 275.315C44.1703 273.565 54.8075 266.954 54.9372 265.788C55.1318 264.427 59.2829 249.391 59.2829 249.391L47.9971 245.632Z" fill="#1a9a67"/>
<path d="M39.7597 275.445L55.1317 264.751L55.002 265.399C54.8723 265.982 54.548 266.501 54.094 266.825C52.8616 267.797 49.2943 270.324 41.2515 275.315C40.7975 275.639 40.2137 275.639 39.7597 275.445Z" fill="#263238"/>
<path d="M53.0562 260.084C52.6022 260.279 52.3428 260.862 52.5373 261.316C52.7319 261.769 53.2508 262.029 53.7048 261.834C54.1589 261.64 54.4832 260.992 54.2886 260.538C54.094 260.084 53.3805 259.825 52.9914 260.084" fill="#EBEBEB"/>
<path d="M44.8189 269.352C44.6892 269.352 44.5595 268.445 43.7163 267.862C42.8731 267.214 41.965 267.214 41.965 267.149C41.965 267.084 42.1596 267.019 42.5488 267.084C42.9379 267.084 43.4568 267.278 43.9109 267.667C44.3649 268.056 44.6243 268.51 44.7541 268.834C44.8838 269.093 44.8838 269.352 44.8189 269.352Z" fill="#263238"/>
<path d="M43.2622 271.232C43.1974 271.297 42.8082 270.649 42.0299 270.26C41.2516 269.806 40.5381 269.806 40.5381 269.741C40.5381 269.676 41.3164 269.482 42.2245 269.936C43.0028 270.389 43.3271 271.167 43.2622 271.232Z" fill="#263238"/>
<path d="M47.4782 267.084C47.4134 267.149 46.7648 266.177 45.6621 265.464C44.5595 264.686 43.4568 264.492 43.4568 264.427C43.4568 264.362 44.6892 264.362 45.8567 265.205C47.0891 265.982 47.6079 267.084 47.4782 267.084Z" fill="#263238"/>
<path d="M48.8403 262.418C48.7754 262.482 47.9971 261.964 46.8945 261.64C45.7918 261.316 44.8189 261.445 44.8189 261.316C44.8189 261.251 45.7918 260.992 47.0242 261.316C48.1268 261.64 48.9052 262.353 48.8403 262.418Z" fill="#263238"/>
<path d="M49.8781 257.816C49.8132 257.881 49.0349 257.168 47.8674 256.974C46.6999 256.714 45.727 257.168 45.6621 257.038C45.6621 256.974 45.8567 256.844 46.2459 256.714C46.635 256.585 47.2836 256.52 47.9322 256.65C48.5808 256.779 49.0997 257.038 49.424 257.298C49.7483 257.557 49.8781 257.751 49.8781 257.816Z" fill="#263238"/>
<path d="M48.0619 256.066C48.0619 256.066 48.0619 255.872 48.1917 255.483C48.3214 255.094 48.516 254.576 49.0348 254.057C49.2943 253.798 49.5537 253.474 50.0078 253.344C50.2672 253.279 50.5915 253.409 50.7212 253.668C50.851 253.927 50.851 254.187 50.7861 254.446C50.5267 255.418 49.4889 256.196 48.3214 256.131C47.1539 256.001 46.3107 255.159 46.0512 254.187C45.9864 253.927 45.9864 253.668 46.181 253.409C46.3755 253.15 46.6999 253.15 46.8944 253.215C47.3485 253.409 47.6079 253.733 47.8025 253.992C48.2565 254.576 48.4511 255.094 48.5808 255.418C48.7105 255.807 48.7105 256.001 48.7105 256.001C48.6457 256.001 48.4511 255.159 47.6079 254.122C47.3485 253.863 47.1539 253.603 46.7647 253.474C46.635 253.409 46.4404 253.474 46.3755 253.603C46.3107 253.733 46.2458 253.927 46.3107 254.122C46.5053 254.9 47.3485 255.677 48.3214 255.807C49.2943 255.872 50.2023 255.224 50.3969 254.446C50.4618 254.252 50.4618 254.057 50.3321 253.927C50.2672 253.798 50.1375 253.733 49.9429 253.733C49.6186 253.798 49.3591 254.057 49.0997 254.316C48.2565 255.224 48.1268 256.131 48.0619 256.066Z" fill="#263238"/>
<path d="M100.599 246.863L103.194 262.677L108.901 274.602C109.291 275.445 108.902 276.481 107.993 276.87C107.475 277.065 106.956 277 106.502 276.741C103.648 274.861 93.2052 267.991 93.0754 266.825C92.9457 265.464 89.1838 250.298 89.1838 250.298L100.599 246.863Z" fill="#1a9a67"/>
<path d="M107.993 276.87L92.8809 265.788L93.0106 266.436C93.1403 267.019 93.3998 267.538 93.9186 267.926C95.151 268.899 98.5886 271.556 106.502 276.741C106.956 277 107.539 277.065 107.993 276.87Z" fill="#263238"/>
<path d="M95.151 261.186C95.6051 261.381 95.8645 261.964 95.6699 262.418C95.4753 262.871 94.8916 263.131 94.4376 262.936C93.9835 262.742 93.6592 262.094 93.9187 261.64C94.1781 261.186 94.8267 260.927 95.2159 261.251" fill="#EBEBEB"/>
<path d="M103.129 270.649C103.259 270.649 103.453 269.806 104.296 269.158C105.14 268.51 106.048 268.575 106.048 268.445C106.048 268.38 105.853 268.315 105.464 268.315C105.075 268.315 104.556 268.51 104.102 268.834C103.648 269.158 103.323 269.676 103.194 270C103.064 270.389 103.064 270.649 103.129 270.649Z" fill="#263238"/>
<path d="M104.621 272.528C104.686 272.593 105.14 271.945 105.918 271.556C106.696 271.167 107.41 271.167 107.41 271.037C107.41 270.973 106.631 270.778 105.723 271.232C104.88 271.75 104.556 272.528 104.621 272.528Z" fill="#263238"/>
<path d="M100.534 268.315C100.599 268.38 101.248 267.408 102.415 266.76C103.583 266.047 104.686 265.853 104.686 265.788C104.686 265.723 103.453 265.723 102.286 266.501C100.924 267.214 100.405 268.315 100.534 268.315Z" fill="#263238"/>
<path d="M99.3021 263.584C99.367 263.649 100.145 263.131 101.313 262.871C102.415 262.612 103.388 262.742 103.388 262.612C103.388 262.547 102.415 262.223 101.183 262.547C100.016 262.806 99.2372 263.519 99.3021 263.584Z" fill="#263238"/>
<path d="M98.394 258.983C98.4589 259.047 99.2372 258.399 100.47 258.205C101.702 258.011 102.61 258.464 102.675 258.335C102.675 258.27 102.48 258.14 102.091 258.011C101.702 257.881 101.118 257.751 100.47 257.881C99.821 258.011 99.3021 258.27 98.9129 258.529C98.5238 258.723 98.394 258.918 98.394 258.983Z" fill="#263238"/>
<path d="M100.275 257.298C100.275 257.298 100.275 257.103 100.21 256.714C100.08 256.325 99.8859 255.807 99.4318 255.224C99.2373 254.964 98.9778 254.64 98.4589 254.511C98.1995 254.446 97.8752 254.576 97.7454 254.77C97.6157 255.029 97.6157 255.288 97.6157 255.548C97.8103 256.52 98.8481 257.362 100.016 257.298C101.183 257.233 102.091 256.39 102.351 255.418C102.415 255.159 102.415 254.9 102.221 254.64C102.026 254.381 101.702 254.316 101.507 254.446C101.053 254.576 100.794 254.9 100.599 255.159C100.145 255.677 99.8859 256.196 99.7561 256.585C99.6264 256.974 99.6264 257.168 99.6264 257.168C99.6913 257.168 99.8859 256.325 100.794 255.288C101.053 255.029 101.313 254.77 101.637 254.64C101.767 254.576 101.961 254.64 102.026 254.77C102.091 254.9 102.091 255.094 102.091 255.288C101.832 256.066 100.988 256.844 100.016 256.909C99.0427 256.974 98.1346 256.261 97.94 255.483C97.8752 255.288 97.94 255.094 98.0049 254.964C98.0698 254.835 98.2643 254.77 98.3941 254.835C98.7184 254.9 98.9778 255.224 99.2372 255.418C100.08 256.455 100.21 257.362 100.275 257.298Z" fill="#263238"/>
<path d="M49.5538 142.454C48.062 140.25 42.0299 261.316 42.4191 261.964L58.4397 262.223L67.1311 197.542L71.8659 148.092L79.5195 194.561L88.8595 262.677L106.372 262.936L95.5402 139.472L72.9037 126.51L49.5538 142.454Z" fill="#263238"/>
<path d="M64.796 61.1163C64.796 61.1163 59.8666 61.9588 58.0505 63.5791C56.1695 65.1994 54.2886 68.9584 54.2886 68.9584L44.9486 75.3098L53.1859 107.974L46.3107 153.147L47.6728 157.036L99.1075 156.193L100.08 152.629L94.7618 111.539L97.0968 83.9944L99.2372 72.9118L89.8972 68.7639C89.8972 68.7639 94.178 67.4677 94.3726 66.69C94.5672 65.9771 84.7732 60.9219 84.7732 60.9219C84.7732 60.9219 69.2714 58.3294 64.796 61.1163Z" fill="#1a9a67"/>
<g opacity="0.3">
<g opacity="0.3">
<path opacity="0.3" d="M49.2294 131.954C55.0021 139.472 62.9799 144.981 70.7632 150.425C72.3848 151.592 74.136 152.758 76.0818 153.147C78.8709 153.73 81.9842 152.434 83.5409 150.036C84.6435 148.286 85.0326 146.148 86.3947 144.592C87.3028 143.555 88.5351 142.842 89.5081 141.87C90.3512 141.028 90.935 139.926 91.5187 138.889C92.5565 136.945 93.6591 135.065 94.6969 133.121C90.8053 133.121 87.2379 135 83.7354 136.685C80.2329 138.37 76.3413 139.861 72.5794 139.019C67.3256 137.852 64.0177 132.473 58.9586 130.593C55.7804 129.427 52.0833 129.751 49.2294 131.5" fill="black"/>
</g>
</g>
<path d="M44.9486 75.3098C44.9486 75.3098 43.0028 77.7726 42.6136 82.8926C42.2244 88.0127 38.8517 114.974 40.0192 118.862C41.1218 122.751 55.5209 138.889 60.3206 138.5L62.1367 137.852L63.8231 139.148L71.4767 133.38L54.548 112.122L55.4561 81.5316C55.4561 81.5964 50.2672 74.1432 44.9486 75.3098Z" fill="#1a9a67"/>
<path d="M58.0505 63.6439C58.0505 63.6439 57.9208 63.7735 57.6613 63.968C57.4019 64.2272 57.0127 64.6161 56.6236 65.1994C56.2344 65.7827 55.7804 66.4956 55.2615 67.4029C54.7426 68.2455 54.094 69.2824 53.3805 70.3842L53.2508 70.2546C54.1588 69.8657 55.3263 69.8657 56.429 70.2546C57.5316 70.5786 58.5694 71.2267 59.6072 72.0045C61.6827 73.5599 63.4988 75.6987 65.3149 78.1615C68.9471 83.0871 72.4496 89.1793 75.8224 95.9195V95.9844V96.0492C75.7575 98.7064 75.6927 101.493 75.563 104.345C75.1738 118.798 74.7846 131.889 74.5252 141.352C74.3955 146.083 74.2657 149.907 74.2009 152.564C74.136 153.86 74.136 154.897 74.0711 155.61C74.0711 155.934 74.0711 156.193 74.0063 156.388C74.0063 156.582 74.0063 156.647 74.0063 156.647C74.0063 156.647 74.0063 156.582 74.0063 156.388C74.0063 156.193 74.0063 155.934 74.0063 155.61C74.0063 154.897 74.0063 153.86 74.0711 152.564C74.136 149.907 74.2009 146.083 74.3306 141.352C74.59 131.889 74.8495 118.798 75.3035 104.28C75.3684 101.428 75.4981 98.6416 75.563 95.9844V96.0492C72.1902 89.3089 68.6877 83.2167 65.1203 78.2911C63.3042 75.8283 61.4881 73.6895 59.4774 72.1341C58.4397 71.3564 57.4019 70.7731 56.3641 70.3842C55.3263 70.0602 54.2237 70.0602 53.3157 70.3842L53.0562 70.449L53.1859 70.1898C53.8994 69.088 54.548 68.1158 55.0669 67.2733C55.5858 66.4308 56.0398 65.653 56.429 65.0698C56.8181 64.4865 57.2073 64.0976 57.5316 63.9032C57.8559 63.7087 58.0505 63.6439 58.0505 63.6439Z" fill="#263238"/>
<path d="M92.6213 67.5325C92.6213 67.5973 91.6484 67.8566 90.0917 68.5047C88.5351 69.1528 86.3947 70.125 84.384 71.6804C82.3733 73.2359 80.7518 74.9209 79.6492 76.1523C79.1303 76.7356 78.6762 77.1893 78.2871 77.643C77.9628 77.967 77.7682 78.1615 77.7682 78.1615C77.7682 78.1615 77.8979 77.9022 78.2222 77.5782C78.4817 77.1893 78.9357 76.6708 79.5194 76.0227C80.6221 74.7265 82.1787 72.9766 84.2543 71.4212C86.3298 69.8657 88.4702 68.8936 90.0917 68.3103C90.8701 68.051 91.5187 67.8566 91.9727 67.727C92.3619 67.5325 92.6213 67.5325 92.6213 67.5325Z" fill="#263238"/>
<path d="M75.8224 96.0491C75.8224 96.0491 75.8224 95.7251 75.8872 95.077C75.9521 94.4937 76.0818 93.5863 76.2764 92.4846C76.6656 90.281 77.3791 87.2997 78.352 84.0592C79.3249 80.8187 80.3627 77.9022 81.2058 75.8931C81.6599 74.8561 82.049 74.0784 82.3733 73.4951C82.6976 72.9766 82.8922 72.6526 82.8922 72.6526C82.8922 72.6526 82.7625 72.9766 82.5031 73.5599C82.2436 74.1432 81.8545 74.9209 81.4653 75.9579C80.6221 78.0318 79.6492 80.8835 78.6763 84.124C77.7034 87.3645 76.9899 90.3458 76.5359 92.4846C76.2764 93.5863 76.1467 94.4289 76.017 95.077C75.9521 95.6603 75.8872 96.0491 75.8224 96.0491Z" fill="#263238"/>
<path d="M80.4206 72.2705C81.9604 69.0784 83.1302 66.4529 83.0334 66.4063C82.9366 66.3597 81.6098 68.9096 80.07 72.1016C78.5302 75.2937 77.3604 77.9192 77.4572 77.9658C77.554 78.0124 78.8808 75.4625 80.4206 72.2705Z" fill="#263238"/>
<path d="M79.0654 90.0866L79.1951 89.7626C79.3249 89.8922 79.5843 89.957 79.7789 89.957C80.0383 89.957 80.1681 89.8922 80.1681 89.7626C80.1681 89.4385 79.0654 89.6329 79.1303 88.92C79.1303 88.596 79.3897 88.3367 79.9086 88.3367C80.1681 88.3367 80.3626 88.4015 80.5572 88.5312L80.4275 88.8552C80.2329 88.7256 80.1032 88.7256 79.9086 88.7256C79.6492 88.7256 79.5843 88.7904 79.5843 88.92C79.5843 89.2441 80.6869 89.0496 80.6221 89.6977C80.6221 90.0218 80.3626 90.281 79.8438 90.281C79.5195 90.281 79.1952 90.2162 79.0654 90.0866Z" fill="white"/>
<path d="M82.3085 89.957V90.2811H80.8815V88.4016H82.3085V88.7256H81.3356V89.1145H82.1788V89.4385H81.3356V89.8922L82.3085 89.957Z" fill="white"/>
<path d="M82.5679 89.3737C82.5679 88.7904 83.0219 88.4016 83.6056 88.4016C83.93 88.4016 84.1894 88.5312 84.384 88.7256L84.1245 88.9848C83.9948 88.8552 83.8651 88.7904 83.6705 88.7904C83.3462 88.7904 83.0868 89.0497 83.0868 89.3737C83.0868 89.6978 83.3462 89.957 83.6705 89.957C83.8651 89.957 83.9948 89.8922 84.1245 89.7626L84.384 90.0218C84.1894 90.2162 83.93 90.3459 83.6056 90.3459C82.957 90.3459 82.5679 89.957 82.5679 89.3737Z" fill="white"/>
<path d="M86.0055 89.8273C86.0055 89.7625 85.9407 89.6329 85.9407 89.5681C85.9407 89.5033 85.8758 89.4385 85.8758 89.3737V89.5681C85.8758 89.8921 85.7461 90.0866 85.4866 90.0866C85.2272 90.0866 85.0975 89.957 85.0975 89.5681V88.5311H84.6434V89.5681C84.6434 90.0866 84.9677 90.4106 85.4866 90.4106C85.8109 90.4106 86.0055 90.281 86.2001 90.0866C86.0704 90.0218 86.0055 89.8921 86.0055 89.8273Z" fill="white"/>
<path d="M86.0704 88.92V89.5681V89.6329C86.0704 89.6977 86.1352 89.6977 86.1352 89.7625C86.1352 89.8273 86.2001 89.8921 86.2001 90.0218C86.265 90.2162 86.265 90.4106 86.265 90.6051C86.3947 90.4754 86.5244 90.2162 86.5244 89.957V88.92H86.0704Z" fill="white"/>
<path d="M88.0811 90.8643L87.7568 90.3458H87.3676V90.8643H86.9136V88.9848H87.6919C88.2108 88.9848 88.4702 89.244 88.4702 89.6977C88.4702 89.957 88.3405 90.1514 88.0811 90.281L88.4702 90.8643H88.0811ZM87.6919 89.3089H87.3676V89.957H87.6919C87.9514 89.957 88.0811 89.8273 88.0811 89.6329C88.0811 89.4385 87.9514 89.3089 87.6919 89.3089Z" fill="white"/>
<path d="M88.8594 88.9848H89.3134V90.8643H88.8594V88.9848Z" fill="white"/>
<path d="M90.1566 89.3737H89.5729V89.0496H91.1944V89.3737H90.6106V90.8643H90.1566V89.3737Z" fill="white"/>
<path d="M92.2321 90.2162V90.8643H91.7781V90.2162L91.0646 88.9848H91.5187L91.9727 89.8273L92.4916 88.9848H92.9456L92.2321 90.2162Z" fill="white"/>
<path d="M87.6271 95.077C87.6271 95.077 87.4974 94.8826 87.3676 94.5585C87.2379 94.2345 87.0433 93.7808 86.8487 93.1327C86.4596 91.9661 86.0056 90.2162 85.7461 88.3367C85.4867 86.3924 85.4867 84.6425 85.6164 83.4111C85.6813 82.763 85.7461 82.2445 85.811 81.9205C85.8758 81.5964 85.9407 81.402 85.9407 81.402C86.0056 81.402 85.9407 82.1797 85.8758 83.4111C85.811 84.6425 85.8758 86.3924 86.1353 88.2719C86.3947 90.1514 86.7839 91.8365 87.1082 93.0679C87.3676 94.2993 87.6271 95.077 87.6271 95.077Z" fill="#263238"/>
<g opacity="0.3">
<g opacity="0.3">
<path opacity="0.3" d="M77.1196 89.8921C76.8601 92.2253 76.0818 93.3271 76.0818 95.6603C76.0818 96.1787 75.3035 104.021 75.7575 104.215C76.2764 104.41 78.4168 98.7063 78.8708 95.8547C79.1951 93.6511 79.8437 90.6698 80.2329 88.4663C81.3355 81.9852 83.7354 78.4207 87.1082 72.7822C87.7568 71.6804 90.1566 68.7639 90.1566 68.7639C89.8972 68.6343 88.9891 69.088 88.3405 69.3472C86.4596 70.1897 83.0219 72.9118 83.0219 72.9118C83.0219 72.9118 80.9464 76.8652 80.2978 78.8095C78.9357 82.5685 77.9628 86.4572 77.1844 90.2162" fill="black"/>
</g>
</g>
<g opacity="0.3">
<g opacity="0.3">
<path opacity="0.3" d="M55.7155 70.125C55.7155 70.125 53.64 71.2916 53.64 72.1989C53.64 73.1063 54.3534 73.884 55.1318 74.3377C55.9101 74.7913 56.883 74.9858 57.7262 75.3098C59.7369 76.0875 61.4233 77.5134 62.9799 79.0688C65.5095 81.5964 67.7148 84.3833 69.5309 87.4294C71.0227 89.957 72.4496 92.7438 74.9792 94.2345C73.228 91.1236 71.4767 88.1423 69.7255 85.0962C67.9742 82.0501 66.0284 79.0688 63.7583 76.3468C61.553 73.6895 57.8559 70.3842 55.7155 70.125Z" fill="black"/>
</g>
</g>
<path d="M48.2565 115.687C48.2565 115.687 48.2565 115.622 48.2565 115.492C48.2565 115.363 48.2565 115.233 48.2565 114.974C48.3213 114.52 48.4511 113.872 48.9051 113.224C49.3591 112.576 50.1374 111.798 51.2401 111.539C52.3427 111.28 53.7048 111.474 54.8074 112.317L54.548 112.446C54.4182 110.502 54.548 108.234 54.9371 105.9C55.2614 103.762 55.6506 101.752 55.91 99.9378C56.1695 98.1231 56.2344 96.438 56.2992 95.0122C56.3641 93.5864 56.3641 92.4846 56.2992 91.7069C56.2992 91.318 56.2992 91.0588 56.2992 90.7995C56.2992 90.6051 56.2992 90.4755 56.2992 90.4755C56.2992 90.4755 56.2992 90.6051 56.3641 90.7995C56.3641 91.0588 56.4289 91.318 56.4289 91.7069C56.4938 92.4846 56.5587 93.6512 56.4938 95.077C56.4938 96.5028 56.4289 98.1879 56.1695 100.003C55.9749 101.882 55.5857 103.891 55.2614 106.03C54.8723 108.298 54.7426 110.502 54.8723 112.511V112.835L54.6128 112.641C53.6399 111.798 52.2778 111.604 51.3049 111.863C50.2672 112.122 49.4888 112.77 49.0997 113.418C48.6456 114.066 48.5159 114.715 48.451 115.103C48.2565 115.427 48.2565 115.687 48.2565 115.687Z" fill="#263238"/>
<path d="M49.8781 131.436C49.8781 131.436 49.9429 131.5 50.0726 131.63C50.2024 131.76 50.3969 131.954 50.6564 132.213C51.1753 132.667 51.8887 133.38 52.9265 134.222C53.8994 135 55.1966 135.972 56.6884 136.88C57.4668 137.333 58.31 137.787 59.218 138.111C59.6721 138.306 60.1909 138.37 60.645 138.306C61.1638 138.241 61.6179 138.046 62.007 137.722L62.1368 137.593L62.2665 137.657C62.7854 138.046 63.3691 138.5 63.9529 138.954H63.7583C66.0933 137.204 68.6877 135.259 71.4119 133.186V133.445C71.347 133.38 71.347 133.315 71.2822 133.25C68.9472 130.399 66.9365 127.547 64.9906 124.955C63.1097 122.427 61.3584 120.094 59.8666 118.214C58.3748 116.335 57.0776 114.844 56.1696 113.872C55.7155 113.354 55.3264 112.965 55.1318 112.77C54.8723 112.511 54.7426 112.381 54.7426 112.381C54.7426 112.381 54.8723 112.511 55.1318 112.705C55.3912 112.965 55.7804 113.289 56.2344 113.807C57.2073 114.779 58.5046 116.27 59.9964 118.085C61.553 119.964 63.3043 122.233 65.1852 124.76C67.1311 127.288 69.2066 130.139 71.4767 132.991C71.5416 133.056 71.5416 133.121 71.6065 133.186L71.7362 133.315L71.6065 133.445C68.8823 135.454 66.2879 137.398 63.9529 139.148L63.888 139.213L63.8231 139.148C63.2394 138.694 62.6557 138.241 62.1368 137.787H62.3313C61.8773 138.241 61.3584 138.435 60.7747 138.5C60.2558 138.565 59.6721 138.435 59.218 138.241C58.2451 137.852 57.4668 137.398 56.6884 136.945C55.1318 135.972 53.8994 135.065 52.9265 134.222C51.9536 133.38 51.2401 132.667 50.7212 132.149C50.5267 131.889 50.3321 131.695 50.2024 131.565C49.9429 131.565 49.8781 131.5 49.8781 131.436Z" fill="#263238"/>
<path d="M56.0398 83.8C55.9749 83.8 55.7155 83.0223 55.1317 81.9205C54.8074 81.3372 54.4183 80.6891 53.8994 80.041C53.3805 79.3929 52.7319 78.68 51.9535 78.0967C51.1752 77.4486 50.3969 76.9949 49.6834 76.5412C48.9051 76.1524 48.2565 75.8283 47.6079 75.6339C46.3755 75.245 45.5972 75.1154 45.5972 75.0506C45.5972 75.0506 45.7917 75.0506 46.1809 75.0506C46.5701 75.1154 47.089 75.1802 47.6727 75.3747C48.3213 75.5691 49.0348 75.8283 49.8131 76.2172C50.5915 76.606 51.3698 77.1245 52.1481 77.7726C52.9265 78.4207 53.5751 79.1337 54.094 79.7818C54.6128 80.4947 55.002 81.1428 55.3263 81.7261C55.5858 82.3094 55.8452 82.8278 55.9101 83.1519C56.0398 83.6056 56.0398 83.8 56.0398 83.8Z" fill="#263238"/>
<g opacity="0.3">
<g opacity="0.3">
<path opacity="0.3" d="M86.9785 93.4567C87.1731 93.9104 87.9514 93.6512 88.0163 93.2623C88.0811 92.8735 87.9514 92.5494 87.7568 92.2254C86.5245 89.8922 85.811 87.3646 85.6164 84.7073C85.4867 87.883 85.811 90.4755 86.9785 93.4567Z" fill="black"/>
</g>
</g>
<g opacity="0.3">
<g opacity="0.3">
<path opacity="0.3" d="M47.9971 114.974C47.4133 113.159 48.2565 111.02 49.9429 110.113C50.3969 109.854 50.8509 109.724 51.305 109.724C52.3427 109.789 53.1211 110.761 53.7048 111.604C52.5373 111.28 51.2401 111.409 50.2023 112.057C49.1646 112.705 48.3862 113.742 48.1916 114.974" fill="black"/>
</g>
</g>
<path d="M98.6534 75.8283C98.7183 75.8283 98.3291 76.4764 97.7454 77.5134C97.2265 78.5503 96.513 79.9762 95.9941 81.6612C95.4752 83.3463 95.1509 84.9018 94.9563 86.0684C94.7618 87.235 94.7618 87.9479 94.6969 87.9479C94.632 87.9479 94.632 87.235 94.6969 86.0684C94.8266 84.9018 95.0861 83.2815 95.6049 81.5964C96.1887 79.9114 96.9022 78.4207 97.4859 77.4486C98.1345 76.3468 98.5886 75.7635 98.6534 75.8283Z" fill="#263238"/>
<g opacity="0.3">
<g opacity="0.3">
<path opacity="0.3" d="M94.3726 92.2253C94.0483 92.6142 93.9185 95.5955 93.9185 95.5955C93.9185 99.2249 94.178 100.845 94.178 104.475C94.178 105.965 94.178 107.521 93.7888 108.946C93.5942 109.724 93.2699 110.437 92.9456 111.15C92.5565 112.057 92.1024 113.03 91.5187 113.807C90.9998 114.52 90.416 115.103 89.8323 115.687C86.9784 118.538 84.3191 121.649 81.9841 125.019L80.5572 127.093L94.6969 113.807L95.4103 112.057L95.4752 111.863L94.3726 92.2253Z" fill="black"/>
</g>
</g>
<path d="M99.2372 72.9766C99.2372 72.9766 101.442 73.8192 102.61 78.8096C103.972 84.5777 105.723 94.1048 105.983 97.7342C106.242 100.78 109.226 111.863 106.891 116.789C104.556 121.649 93.3997 136.815 88.9892 137.269L87.1731 136.815L85.2272 137.139L79.7789 130.917L80.233 129.102C80.233 129.102 79.6492 128.13 80.233 127.223C80.8816 126.316 94.6969 113.354 94.6969 113.354C94.6969 113.354 94.1781 113.289 94.0483 112.381C93.8538 110.826 95.2158 110.891 95.2158 110.891L94.3078 97.2806L99.2372 72.9766Z" fill="#1a9a67"/>
<path d="M100.08 114.909C100.016 114.974 98.9777 114.261 97.5508 113.807C96.1239 113.354 94.8267 113.354 94.8267 113.224C94.8267 113.159 96.1239 112.965 97.6157 113.483C99.1723 113.937 100.145 114.844 100.08 114.909Z" fill="#263238"/>
<path d="M102.869 112.835C102.805 112.9 101.442 111.604 99.3021 111.085C97.1617 110.502 95.3456 110.956 95.2807 110.826C95.2807 110.761 95.7347 110.632 96.4482 110.502C97.1617 110.437 98.2643 110.437 99.3669 110.696C100.47 111.02 101.378 111.539 102.026 111.993C102.61 112.446 102.869 112.835 102.869 112.835Z" fill="#263238"/>
<path d="M94.8267 113.224C94.8267 113.224 94.5672 113.224 94.3078 113.029C94.1781 112.9 94.0484 112.77 93.9186 112.511C93.8538 112.252 93.8538 111.993 93.9186 111.733C93.9835 111.539 94.0484 111.409 94.1132 111.28V111.344C94.3078 110.891 94.7618 110.761 94.9564 110.761C95.2159 110.761 95.3456 110.826 95.3456 110.826C95.3456 110.891 95.2159 110.891 95.0213 110.956C94.8267 111.02 94.5024 111.15 94.4375 111.409C94.3727 111.539 94.3078 111.668 94.3078 111.798C94.1781 112.252 94.3078 112.641 94.5024 112.835C94.697 113.094 94.8916 113.159 94.8267 113.224Z" fill="#263238"/>
<path d="M94.2429 91.5773C94.2429 91.5773 94.3078 91.8365 94.3726 92.355C94.4375 92.8735 94.5024 93.5216 94.5672 94.4289C94.6969 96.1788 94.8267 98.5768 94.9564 101.234C95.0861 103.891 95.151 106.224 95.2158 108.039C95.2807 108.882 95.2807 109.53 95.2807 110.113C95.2807 110.632 95.2807 110.891 95.2807 110.891C95.2807 110.891 95.2158 110.632 95.151 110.113C95.0861 109.595 95.0212 108.946 94.9564 108.039C94.8267 106.289 94.6969 103.891 94.5672 101.234C94.4375 98.6416 94.3726 96.2436 94.3078 94.4289C94.2429 93.5864 94.2429 92.9383 94.2429 92.355C94.1781 91.8365 94.1781 91.5773 94.2429 91.5773Z" fill="#263238"/>
<path d="M95.0861 113.159C95.0861 113.159 94.9564 113.289 94.7618 113.483C94.5024 113.742 94.1781 114.002 93.724 114.391C92.816 115.233 91.5188 116.4 89.9621 117.825C88.3406 119.316 86.4596 121.066 84.3841 123.14C83.3463 124.177 82.2436 125.214 81.141 126.38C80.8816 126.64 80.6221 126.964 80.4275 127.288C80.233 127.612 80.233 128.001 80.2978 128.39C80.3627 128.778 80.4924 129.167 80.4924 129.686C80.4924 130.139 80.2978 130.658 79.7789 130.917L79.8438 130.658C80.7518 131.695 81.6599 132.732 82.6328 133.834C83.5409 134.871 84.5138 135.972 85.357 136.945L85.2272 136.88C85.8759 136.75 86.5245 136.685 87.1731 136.556C88.0163 136.685 88.7297 137.074 89.4432 136.945C90.1567 136.88 90.8053 136.491 91.389 136.037C92.5565 135.13 93.5294 134.093 94.5024 133.121C96.3833 131.176 97.8751 129.297 99.1075 127.741C100.34 126.186 101.313 124.89 102.026 124.047C102.351 123.658 102.61 123.334 102.805 123.075C102.999 122.881 103.064 122.751 103.064 122.751C103.064 122.751 102.999 122.881 102.805 123.14C102.61 123.399 102.351 123.723 102.091 124.177C101.442 125.084 100.47 126.38 99.2372 127.936C98.0048 129.491 96.513 131.371 94.6321 133.38C93.724 134.352 92.6863 135.389 91.5188 136.296C90.935 136.75 90.2215 137.139 89.3783 137.269C88.5352 137.398 87.7568 137.009 87.0434 136.88H87.1082C86.4596 137.009 85.811 137.074 85.1624 137.204H85.0975L85.0327 137.139C84.1246 136.102 83.2166 135.065 82.3085 134.028C81.3356 132.926 80.4275 131.825 79.5195 130.852L79.3898 130.658L79.5844 130.593C79.9087 130.464 80.0384 130.075 80.0384 129.686C80.0384 129.297 79.9087 128.908 79.8438 128.454C79.7789 128.066 79.7789 127.547 79.9735 127.158C80.1681 126.769 80.4275 126.445 80.7518 126.121C81.9193 124.955 82.9571 123.918 84.0598 122.881C86.1353 120.872 88.0811 119.122 89.7027 117.631C91.3242 116.205 92.6214 115.039 93.5943 114.261C94.0483 113.872 94.3726 113.613 94.6321 113.354C94.9564 113.224 95.0861 113.094 95.0861 113.159Z" fill="#263238"/>
<path d="M94.7157 105.375C94.7173 105.267 85.8915 105.053 75.0028 104.897C64.1141 104.74 55.2858 104.701 55.2842 104.808C55.2827 104.915 64.1085 105.129 74.9972 105.286C85.8859 105.442 94.7142 105.482 94.7157 105.375Z" fill="#263238"/>
<path d="M84.5786 110.696C84.5786 110.696 84.5786 110.761 84.5786 110.956C84.5786 111.085 84.5137 111.344 84.4489 111.669C84.3191 112.252 84.0597 113.159 83.6705 114.196C82.8273 116.27 81.141 118.992 78.3519 121.001C75.5629 123.01 72.4496 123.788 70.2443 123.918C69.1417 123.982 68.2336 123.918 67.585 123.853C67.2607 123.853 67.0661 123.788 66.8716 123.723C66.7418 123.723 66.6121 123.658 66.6121 123.658C66.6121 123.594 67.9742 123.853 70.1795 123.658C72.3847 123.464 75.4332 122.686 78.1574 120.742C80.8815 118.798 82.6328 116.14 83.476 114.131C84.384 112.057 84.5137 110.696 84.5786 110.696Z" fill="#263238"/>
<path d="M65.7041 137.787C65.6392 137.852 65.2501 137.658 64.9258 137.269C64.6015 136.88 64.4717 136.491 64.5366 136.426C64.6015 136.361 64.8609 136.685 65.1852 137.009C65.5095 137.398 65.7041 137.722 65.7041 137.787Z" fill="#263238"/>
<path d="M68.1521 135.873C68.2384 135.809 68.0836 135.454 67.8063 135.081C67.529 134.707 67.2342 134.456 67.1479 134.52C67.0616 134.583 67.2164 134.938 67.4937 135.312C67.771 135.686 68.0658 135.937 68.1521 135.873Z" fill="#263238"/>
<path d="M82.503 130.658C82.5679 130.723 82.1787 130.982 81.7247 131.306C81.2707 131.63 80.8815 131.825 80.8167 131.76C80.7518 131.695 81.0761 131.306 81.5301 130.982C81.9842 130.723 82.4382 130.593 82.503 130.658Z" fill="#263238"/>
<path d="M84.3192 132.473C84.384 132.537 84.1894 132.991 83.6705 133.445C83.2165 133.898 82.6976 134.093 82.6328 134.028C82.5679 133.963 82.9571 133.639 83.4111 133.186C83.93 132.797 84.2543 132.408 84.3192 132.473Z" fill="#263238"/>
<path d="M86.0704 134.611C86.1353 134.676 85.8759 135.065 85.357 135.454C84.9029 135.843 84.3841 136.037 84.3841 135.908C84.3192 135.843 84.7084 135.519 85.1624 135.13C85.6813 134.871 86.0056 134.547 86.0704 134.611Z" fill="#263238"/>
<path d="M60.9692 65.653C61.0341 65.5882 61.8124 67.5325 63.1745 69.7361C64.4717 71.9396 65.8338 73.5599 65.7689 73.6247C65.7041 73.6247 65.3798 73.3006 64.796 72.6525C64.2771 72.0044 63.5637 71.0323 62.9151 69.9305C62.2664 68.8287 61.7476 67.7269 61.4233 66.9492C61.0341 66.1715 60.9044 65.653 60.9692 65.653Z" fill="#263238"/>
<path d="M100.08 152.693C100.08 152.693 99.8857 152.693 99.5614 152.693C99.1723 152.693 98.6534 152.693 98.0048 152.693C96.5778 152.693 94.632 152.693 92.2322 152.758C87.3676 152.823 80.6221 153.018 73.1631 153.212C65.7041 153.406 58.9585 153.601 54.094 153.601C51.6292 153.601 49.6834 153.601 48.3213 153.536C47.6727 153.536 47.1538 153.471 46.7647 153.471C46.3755 153.471 46.2458 153.471 46.2458 153.406C46.2458 153.406 46.4404 153.406 46.7647 153.406C47.1538 153.406 47.6727 153.406 48.3213 153.406C49.7483 153.406 51.6941 153.406 54.094 153.342C58.9585 153.277 65.7041 153.082 73.1631 152.888C80.6221 152.693 87.3676 152.499 92.2322 152.499C94.6969 152.499 96.6427 152.499 98.0048 152.564C98.6534 152.564 99.1723 152.629 99.5614 152.629C99.8857 152.693 100.08 152.693 100.08 152.693Z" fill="#263238"/>
<path d="M86.6542 66.69C86.5893 66.7548 85.811 65.8474 84.5138 65.0697C83.2814 64.292 82.1139 63.9679 82.1139 63.9031C82.1139 63.8383 83.3463 63.9679 84.6435 64.8105C86.0056 65.5882 86.719 66.6252 86.6542 66.69Z" fill="#1a9a67"/>
<path d="M82.4382 138.306C82.6977 138.759 83.2814 138.954 83.8003 138.954C84.3192 138.954 84.8381 138.759 85.357 138.759C85.8759 138.759 86.4596 138.889 86.7191 139.343C86.9136 139.731 86.9136 140.185 86.6542 140.509C86.4596 140.898 86.1353 141.157 85.7461 141.352C83.9949 142.389 81.6599 142.129 80.1681 140.833" fill="#FFBF9D"/>
<path d="M70.5687 146.342C72.1253 147.833 73.7468 149.259 75.563 150.425C75.9521 150.684 76.4061 150.944 76.8602 150.879C77.3142 150.814 77.7034 150.166 77.3791 149.842C77.8331 150.231 78.6114 150.231 79.1303 149.907C79.5843 149.583 79.8438 148.935 79.6492 148.351C79.6492 148.286 79.6492 148.286 79.7141 148.286C80.1681 148.481 80.7518 148.481 81.141 148.157C81.595 147.898 81.8545 147.314 81.6599 146.796C82.1139 147.444 83.2814 147.185 83.6706 146.472C84.0597 145.759 83.8003 144.851 83.2814 144.203C82.7625 143.555 82.1139 143.102 81.4653 142.583C80.8167 142.065 80.2329 141.416 80.1032 140.639" fill="#FFBF9D"/>
<path d="M77.6385 150.101C77.5737 150.166 76.7305 149.842 75.9521 148.999C75.1738 148.157 74.7846 147.314 74.8495 147.249C74.9144 147.185 75.4333 147.962 76.1467 148.74C76.9251 149.518 77.6385 150.036 77.6385 150.101Z" fill="#FF9A6C"/>
<path d="M80.0384 148.61C79.9735 148.675 79.26 148.286 78.4817 147.573C77.7682 146.861 77.3142 146.083 77.3791 146.018C77.4439 145.953 77.9628 146.601 78.6763 147.314C79.4546 148.027 80.1032 148.481 80.0384 148.61Z" fill="#FF9A6C"/>
<path d="M82.1788 147.12C82.1139 147.185 81.4005 146.796 80.687 146.148C79.9735 145.435 79.5843 144.722 79.6492 144.722C79.7141 144.657 80.233 145.24 80.9464 145.953C81.595 146.537 82.1788 146.99 82.1788 147.12Z" fill="#FF9A6C"/>
<path d="M66.2879 131.695C66.2879 131.695 66.0933 130.852 68.2337 131.112C70.3741 131.371 71.347 131.565 73.682 131.436C76.0818 131.306 79.9735 130.658 79.9735 130.658L86.2001 136.167C86.2001 136.167 79.8438 141.805 77.898 142.778C76.017 143.75 72.1253 146.277 69.8552 146.148C68.1688 146.083 68.0391 145.24 68.0391 145.24C68.0391 145.24 66.4176 144.139 66.6122 143.555C66.6122 143.555 64.6663 143.426 65.0555 141.935C65.0555 141.935 63.6934 141.676 63.434 140.898C63.2394 140.12 64.2772 139.148 64.6663 138.759C65.3149 138.111 71.0227 133.963 71.0227 133.834C71.0227 133.834 66.223 133.38 66.2879 131.695Z" fill="#FFBF9D"/>
<path d="M67.7864 140.016C69.2617 138.88 70.4045 137.89 70.3389 137.805C70.2733 137.72 69.0241 138.572 67.5489 139.708C66.0736 140.845 64.9308 141.835 64.9964 141.92C65.062 142.005 66.3112 141.153 67.7864 140.016Z" fill="#FF9A6C"/>
<path d="M73.2928 138.37C73.3577 138.37 73.0334 138.824 72.5145 139.407C71.9956 139.991 71.2173 140.768 70.3092 141.481C69.3363 142.194 68.4283 142.778 67.7797 143.102C67.0662 143.426 66.6122 143.62 66.6122 143.555C66.5473 143.49 68.2985 142.648 70.1147 141.157C71.9956 139.731 73.228 138.306 73.2928 138.37Z" fill="#FF9A6C"/>
<path d="M76.017 140.315C76.017 140.315 75.7575 140.833 75.1738 141.481C74.59 142.129 73.682 142.972 72.5145 143.685C71.347 144.398 70.1795 144.787 69.3363 145.046C68.4931 145.24 67.9094 145.305 67.9094 145.24C67.9094 145.111 70.0498 144.787 72.3199 143.426C74.59 141.935 75.9521 140.185 76.017 140.315Z" fill="#FF9A6C"/>
<path d="M83.6058 138.5C83.6058 138.5 83.476 138.694 83.1517 139.018C82.8274 139.343 82.3734 139.731 81.7248 140.185C80.4924 141.157 78.8061 142.453 76.7305 143.62C75.6927 144.203 74.7198 144.722 73.8118 145.175C72.9037 145.629 71.9957 145.953 71.2173 146.148C70.439 146.342 69.7904 146.277 69.3364 146.148C68.8823 146.018 68.6877 145.888 68.6877 145.888C68.6877 145.824 69.5958 146.342 71.1525 145.953C71.8659 145.759 72.7091 145.435 73.6172 144.981C74.5252 144.527 75.4981 144.009 76.5359 143.426C78.5466 142.259 80.2979 141.028 81.5302 140.055C82.8923 139.083 83.6058 138.435 83.6058 138.5Z" fill="#FF9A6C"/>
<path d="M72.1902 29.5536C65.9635 28.9703 60.4504 33.6367 59.9963 39.8585C59.6072 45.0433 59.218 50.6818 59.218 53.5335C59.218 59.6257 65.2501 60.6626 65.2501 60.6626C65.2501 60.6626 65.0555 62.4773 64.8609 64.6809C64.4717 69.1528 67.8445 73.1062 72.3848 73.3655C76.7953 73.6247 80.6221 70.2546 80.8815 65.8475L82.3085 41.3491C82.6977 35.3217 78.2223 30.0721 72.1902 29.5536Z" fill="#FFBF9D"/>
<path d="M65.2501 60.533C65.2501 60.533 69.0769 60.9218 73.228 58.3942C73.228 58.3942 71.2173 62.8013 65.1204 62.1532L65.2501 60.533Z" fill="#FF9A6C"/>
<path d="M81.7896 43.423C81.9194 43.3582 86.0056 42.2564 85.811 46.4043C85.6164 50.5522 81.4653 49.5152 81.4653 49.3856C81.4653 49.256 81.7896 43.423 81.7896 43.423Z" fill="#FFBF9D"/>
<path d="M82.7626 47.8949C82.7626 47.8949 82.8274 47.9598 82.9572 48.0246C83.0869 48.0894 83.2815 48.1542 83.476 48.0894C83.9301 47.9598 84.3192 47.2468 84.3841 46.5339C84.3841 46.1451 84.3192 45.821 84.2544 45.497C84.1247 45.1729 83.9301 44.9785 83.7355 44.9137C83.5409 44.8489 83.3463 44.9785 83.2815 45.1081C83.2166 45.2377 83.2166 45.3025 83.2166 45.3025C83.2166 45.3025 83.1517 45.2377 83.1517 45.0433C83.1517 44.9785 83.2166 44.8488 83.3463 44.784C83.476 44.7192 83.6058 44.6544 83.7355 44.7192C84.0598 44.784 84.3192 45.0433 84.449 45.3673C84.5787 45.6914 84.7084 46.1451 84.6436 46.5339C84.5787 47.3765 84.1247 48.1542 83.476 48.2838C83.1517 48.3486 82.9572 48.219 82.8274 48.1542C82.7626 47.9598 82.7626 47.8949 82.7626 47.8949Z" fill="#FF9A6C"/>
<path d="M62.3313 43.1638C62.3313 43.6174 62.6556 44.0063 63.1745 44.0711C63.6285 44.1359 64.0825 43.7471 64.0825 43.2934C64.0825 42.8397 63.7582 42.4509 63.2394 42.386C62.7853 42.386 62.3962 42.7101 62.3313 43.1638Z" fill="#263238"/>
<path d="M61.553 42.062C61.6827 42.1916 62.3313 41.6732 63.2394 41.738C64.1474 41.738 64.8609 42.2565 64.9258 42.1268C64.9906 42.062 64.8609 41.8676 64.6015 41.6732C64.342 41.4787 63.8231 41.2195 63.2394 41.2195C62.6556 41.2195 62.1367 41.4139 61.8773 41.6083C61.553 41.8028 61.4881 41.9972 61.553 42.062Z" fill="#263238"/>
<path d="M71.7361 43.423C71.7361 43.8767 72.0604 44.2655 72.5793 44.3303C73.0333 44.3951 73.4873 44.0063 73.4873 43.5526C73.4873 43.0989 73.163 42.7101 72.6441 42.6453C72.1252 42.6453 71.7361 42.9693 71.7361 43.423Z" fill="#263238"/>
<path d="M70.6984 42.3212C70.8281 42.4509 71.4767 41.9324 72.3847 41.9972C73.2928 41.9972 74.0062 42.5157 74.0711 42.386C74.136 42.3212 74.0062 42.1268 73.7468 41.9324C73.4874 41.7379 72.9685 41.4787 72.3847 41.4787C71.801 41.4787 71.2821 41.6731 71.0227 41.8676C70.7632 42.062 70.6335 42.3212 70.6984 42.3212Z" fill="#263238"/>
<path d="M67.1959 49.256C67.1959 49.1911 66.6122 49.1263 65.7041 48.9319C65.4447 48.9319 65.2501 48.8671 65.1852 48.6727C65.1204 48.4782 65.2501 48.219 65.3798 47.9597C65.6393 47.3765 65.8338 46.7932 66.0933 46.1451C67.1311 43.5526 67.8445 41.4787 67.7797 41.4139C67.6499 41.3491 66.7419 43.423 65.769 46.0154C65.5095 46.6635 65.3149 47.2468 65.0555 47.8301C64.9906 48.0894 64.7961 48.4134 64.9258 48.7375C64.9906 48.9319 65.1852 49.0615 65.3149 49.0615C65.4447 49.1263 65.5744 49.1263 65.7041 49.1263C66.6122 49.256 67.1959 49.256 67.1959 49.256Z" fill="#263238"/>
<path d="M69.6606 38.9511C69.7903 39.2104 70.6984 39.0159 71.801 39.0807C72.9036 39.1456 73.8117 39.4048 73.9414 39.1456C74.0063 39.0159 73.8117 38.8215 73.4874 38.5623C73.0982 38.3678 72.5145 38.1734 71.8659 38.1086C71.2173 38.1086 70.6335 38.2382 70.2443 38.4326C69.7903 38.6271 69.5957 38.8215 69.6606 38.9511Z" fill="#263238"/>
<path d="M61.1639 38.6271C61.2936 38.8215 61.9422 38.6271 62.7205 38.6271C63.4989 38.6271 64.1475 38.8215 64.2772 38.5623C64.342 38.4326 64.2772 38.2382 63.9529 38.0438C63.6934 37.8493 63.1745 37.6549 62.6557 37.6549C62.1368 37.6549 61.6827 37.8493 61.3584 38.0438C61.2287 38.303 61.099 38.4974 61.1639 38.6271Z" fill="#263238"/>
<path d="M82.2437 43.2286C82.3085 43.8767 82.2437 44.5896 82.1139 45.2377C81.9842 45.8858 81.595 46.4691 81.0113 46.7284C79.9735 47.2469 78.6763 46.4043 78.2223 45.3674C77.7683 44.2656 77.898 43.099 78.0277 41.9324C78.2223 40.3769 78.2871 38.7567 78.0277 37.2012C77.7683 35.6458 77.0548 34.0903 75.8224 33.1182C74.5901 32.0812 72.774 31.7572 71.347 32.4053C70.439 32.7941 69.7904 33.5718 68.9472 34.0903C68.1688 34.544 67.3256 34.8681 66.4176 34.6736C65.5744 34.544 64.342 33.8959 64.5366 33.0534C64.8609 31.0442 63.4989 32.7293 63.5637 32.4053C63.6934 31.822 64.8609 30.8498 65.3798 30.4609C66.2879 29.8128 67.1959 29.4888 68.1688 29.2944C70.8281 28.8407 73.6172 29.1647 76.0819 30.2017C78.5466 31.2387 80.7519 33.1182 81.7248 35.581C82.8923 38.4326 82.6977 40.1825 82.3085 43.2934" fill="#263238"/>
<path d="M67.4767 52.433C68.4426 52.3811 69.2177 52.1942 69.2081 52.0154C69.1985 51.8367 68.4077 51.7339 67.4419 51.7858C66.4761 51.8377 65.7009 52.0246 65.7105 52.2034C65.7201 52.3821 66.5109 52.4849 67.4767 52.433Z" fill="#263238"/>
<path d="M82.2436 43.6175C82.2436 43.6823 81.7248 43.5526 80.9464 43.3582C80.1681 43.099 79.1303 42.7101 78.0277 42.2564C76.9899 41.8028 76.017 41.4139 75.1089 41.0898C74.3955 40.8306 73.8766 40.6362 73.9414 40.5714C73.9414 40.5066 74.4603 40.6362 75.2387 40.8306C76.017 41.0898 77.0548 41.4787 78.1574 41.9324C79.1952 42.3861 80.1681 42.7749 81.0761 43.099C81.7896 43.423 82.2436 43.5526 82.2436 43.6175Z" fill="#263238"/>
<path d="M64.9257 40.0529C65.5095 40.1177 65.9635 40.5066 66.0284 41.0899C66.223 42.1917 66.0284 43.2934 65.5095 44.3304C64.8609 45.5618 63.6285 46.534 62.2664 46.9228C61.4881 47.1173 60.5801 47.1173 59.8666 46.7284C58.8937 46.1451 58.5694 44.8489 58.5045 43.6823C58.4397 42.8398 58.4397 41.9324 58.8937 41.2843C59.4774 40.377 60.6449 40.0529 61.6827 39.9881C62.7853 39.8585 64.9257 40.0529 64.9257 40.0529Z" fill="#263238"/>
<path d="M69.7903 40.1825C69.2066 40.2473 68.7526 40.6362 68.6877 41.2195C68.4931 42.3213 68.6228 43.4879 69.1417 44.46C69.7903 45.7562 70.9578 46.7284 72.3848 47.1821C73.1631 47.4413 74.0712 47.4413 74.7846 47.0524C75.7575 46.4691 76.1467 45.1729 76.2116 44.0712C76.2764 43.2286 76.2764 42.3213 75.8873 41.6084C75.3035 40.701 74.2009 40.3121 73.0982 40.2473C71.9956 40.0529 69.7903 40.1825 69.7903 40.1825Z" fill="#263238"/>
<path d="M70.77 40.3237C70.7721 40.2163 69.177 40.0975 67.2072 40.0582C65.2374 40.0189 63.6388 40.0741 63.6367 40.1815C63.6346 40.2888 65.2297 40.4077 67.1995 40.447C69.1693 40.4862 70.7678 40.4311 70.77 40.3237Z" fill="#263238"/>
<path d="M81.9842 67.9214C81.9842 67.9214 81.9842 67.8566 81.9842 67.7918C81.9842 67.727 81.9842 67.5974 81.9842 67.4677C81.9842 67.2085 82.1139 66.8196 82.3734 66.366C82.6328 65.9123 82.8922 65.3938 83.0868 64.7457C83.2814 64.0976 83.3463 63.3199 83.3463 62.4125C83.3463 61.5052 83.2165 60.5978 83.1517 59.5609C83.1517 59.3016 83.1517 58.9776 83.3463 58.7183C83.476 58.4591 83.8003 58.1998 84.1895 58.3295C84.384 58.3943 84.5138 58.4591 84.5786 58.6535C84.7083 58.7831 84.7083 59.0424 84.5786 59.2368C84.3192 59.5609 83.93 59.5609 83.6057 59.4312C83.022 59.172 82.6328 58.3943 82.8274 57.7462C82.8922 57.4221 83.0868 57.0981 83.4111 56.9036C83.5409 56.774 83.7354 56.7092 83.93 56.7092C84.1246 56.7092 84.3192 56.7092 84.5138 56.9036C84.6435 57.0332 84.7732 57.2925 84.6435 57.5517C84.5138 57.811 84.2543 57.8758 84.1246 57.8758C83.7354 57.8758 83.3463 57.7462 83.1517 57.4221C82.8922 57.1629 82.7625 56.774 82.8274 56.3851C82.8922 55.9963 83.1517 55.6722 83.476 55.4778C83.7354 55.2834 84.0597 55.2186 84.384 55.2834C84.5786 55.3482 84.7083 55.413 84.8381 55.5426C84.9678 55.6722 85.0326 55.8667 84.9678 56.0611C84.9029 56.2555 84.7083 56.3851 84.5786 56.4499C84.384 56.5148 84.2543 56.5148 84.1246 56.5148C83.8003 56.4499 83.5408 56.3203 83.2814 56.1259C82.8274 55.737 82.5031 55.0889 82.7625 54.5056C82.9571 53.9872 83.5409 53.5335 84.1895 53.6631C84.4489 53.7279 84.7732 53.9223 84.8381 54.3112C84.8381 54.5056 84.7732 54.6353 84.6435 54.7649C84.5138 54.8945 84.384 54.9593 84.2543 54.9593C83.93 54.9593 83.6706 54.8297 83.476 54.7001C83.2814 54.5704 83.0868 54.376 83.022 54.1168C82.7625 53.6631 82.8922 53.015 83.3463 52.7558C83.8003 52.4317 84.4489 52.6909 84.5786 53.2094V53.2742L84.5138 53.339C83.8652 53.6631 83.1517 53.339 82.9571 52.7558C82.8274 52.4965 82.8922 52.1725 83.022 51.9132C83.1517 51.654 83.3463 51.5244 83.6057 51.3947C83.8651 51.2651 84.1246 51.2651 84.3192 51.3947C84.5138 51.4595 84.7732 51.7188 84.7083 51.978C84.7083 52.1076 84.5786 52.2373 84.4489 52.2373C84.3192 52.3021 84.1895 52.2373 84.1246 52.2373C83.93 52.1725 83.8003 51.9132 83.8003 51.7836C83.6706 51.1355 83.7354 50.617 83.8003 50.2281C83.8652 49.9041 83.93 49.7097 83.93 49.7097C83.9949 49.7097 83.7354 50.4874 83.9949 51.7188C84.0597 51.8484 84.1246 51.978 84.2543 52.0428C84.384 52.1076 84.5786 52.0428 84.5786 51.9132C84.6435 51.5892 84.1246 51.3947 83.7354 51.5892C83.3463 51.7188 83.022 52.2373 83.2165 52.6261C83.3463 53.015 83.9949 53.339 84.4489 53.0798L84.384 53.2094C84.3192 52.8854 83.8651 52.6909 83.6057 52.9502C83.2814 53.1446 83.2165 53.5983 83.4111 53.9872C83.6057 54.3112 83.9949 54.7001 84.384 54.7001C84.5786 54.7001 84.7083 54.5704 84.7083 54.376C84.7083 54.2464 84.5138 54.052 84.3192 54.052C83.93 53.9223 83.476 54.2464 83.2814 54.7001C83.1517 55.0889 83.3463 55.6074 83.7354 55.9315C83.93 56.0611 84.1895 56.1907 84.384 56.1907C84.5786 56.2555 84.8381 56.1259 84.9029 55.9963C84.9678 55.8667 84.7732 55.6722 84.5786 55.6074C84.384 55.5426 84.1246 55.6074 83.93 55.737C83.6706 55.8667 83.476 56.1259 83.476 56.4499C83.4111 56.7092 83.5409 57.0332 83.7354 57.2277C83.93 57.4221 84.1895 57.5517 84.4489 57.5517C84.7083 57.5517 84.7732 57.3573 84.6435 57.1629C84.5138 57.0332 84.1895 57.0332 83.9949 57.2277C83.8003 57.3573 83.6057 57.6165 83.5409 57.8758C83.4111 58.3943 83.6706 58.9776 84.1246 59.172C84.3192 59.2368 84.6435 59.2368 84.7083 59.1072C84.8381 58.9776 84.7083 58.7183 84.4489 58.6535C84.2543 58.5887 84.0597 58.7183 83.93 58.9128C83.8003 59.1072 83.7354 59.3664 83.7354 59.5609C83.8003 60.5978 83.8652 61.57 83.8652 62.4773C83.8652 63.3847 83.7354 64.1624 83.5409 64.8753C83.3463 65.5882 83.022 66.1067 82.7625 66.4956C82.5031 66.8844 82.3734 67.2733 82.3085 67.5325C81.9842 67.7918 81.9842 67.9214 81.9842 67.9214Z" fill="#F0F1F2"/>
<path d="M84.384 48.0246C84.3192 47.7005 84.2543 47.3765 84.1246 47.1172C83.93 46.858 83.6706 46.6636 83.3463 46.5987C83.022 46.5339 82.6328 46.7932 82.5031 47.1172C82.3734 47.4413 82.5679 47.8301 82.8274 48.0246L82.8922 48.0894C83.022 48.1542 83.1517 48.1542 83.2814 48.219C83.476 48.3486 83.6057 48.6727 83.5409 48.9319C83.5409 49.1912 83.476 49.4504 83.476 49.7096C83.476 49.9041 83.6057 50.0985 83.8003 50.0985C83.9949 50.0985 84.0597 49.9689 84.1246 49.7745C84.4489 49.3208 84.4489 48.6727 84.384 48.0246Z" fill="#F0F1F2"/>
<path d="M65.1852 61.57C65.1852 61.57 63.888 63.4495 63.7583 64.7457C63.6934 65.5883 64.2123 68.764 64.6015 70.8379C64.7961 72.0045 65.3149 73.1711 65.9635 74.1433L66.8067 75.3747C68.0391 77.1893 69.0769 79.0688 69.8552 81.078C71.4767 85.2258 74.2657 92.2254 74.3306 92.5494C74.4603 93.0031 75.563 95.0122 75.563 95.0122L77.0548 77.5134L81.4653 68.764C81.8545 67.9863 82.0491 67.1437 82.1139 66.3012L82.2436 63.5143C82.3085 62.4774 81.9193 61.5052 81.2059 60.7275L81.0113 63.2551L73.682 69.8658L65.1852 64.1624V61.57Z" fill="white"/>
<path d="M73.2928 69.9954C73.3577 70.0602 72.4496 70.3194 71.7361 71.4212C71.0227 72.523 70.4389 74.2729 69.9849 76.282C69.92 76.4764 69.8552 76.6708 69.8552 76.8653L69.7903 77.1245L69.5957 76.9301C68.1039 75.6987 67.0013 74.4025 66.1581 73.4951C65.3149 72.5878 64.8609 72.0045 64.8609 72.0045C64.8609 72.0045 65.4446 72.4582 66.2878 73.3655C67.131 74.208 68.2985 75.5043 69.7903 76.6708L69.5309 76.7357C69.5957 76.5412 69.5957 76.3468 69.6606 76.1524C70.1146 74.1432 70.7632 72.3934 71.5416 71.2916C71.9307 70.7083 72.3848 70.3842 72.7091 70.1898C73.0982 70.0602 73.2928 69.9954 73.2928 69.9954Z" fill="#263238"/>
<path d="M78.5466 74.7265C78.6114 74.7914 77.898 75.8283 76.9251 77.3838L76.6656 77.7726V77.2542C76.6656 76.5412 76.471 75.7635 76.2116 74.8562C75.8224 73.3655 75.4333 72.0045 74.9144 71.162C74.3955 70.3194 73.8117 69.9954 73.8766 69.9306C73.8766 69.9306 74.0063 69.9954 74.2658 70.125C74.5252 70.3194 74.7847 70.5787 75.109 71.0323C75.7576 71.8749 76.1467 73.2359 76.5359 74.7265C76.7953 75.5691 76.9899 76.4116 76.9899 77.1893L76.7305 77.1245C77.7034 75.6987 78.4817 74.6617 78.5466 74.7265Z" fill="#263238"/>
<path d="M75.1561 93.8182C75.2633 93.8113 75.0086 88.5068 74.5871 81.9703C74.1655 75.4339 73.7369 70.1406 73.6297 70.1475C73.5224 70.1544 73.7772 75.4588 74.1987 81.9953C74.6202 88.5318 75.0489 93.8251 75.1561 93.8182Z" fill="#263238"/>
<path d="M58.8288 43.6175C58.764 43.6823 58.4397 42.9694 58.764 42.1268C59.0234 41.2843 59.672 40.8954 59.7369 40.9603C59.8018 41.0251 59.3477 41.4787 59.0883 42.2565C58.8288 42.9694 58.8937 43.6175 58.8288 43.6175Z" fill="#F0F1F2"/>
<path d="M69.5309 44.0064C69.466 44.0712 69.012 43.4879 69.012 42.7102C69.012 41.8676 69.466 41.3491 69.5309 41.414C69.5958 41.4788 69.4012 41.9972 69.4012 42.7102C69.3363 43.4231 69.5958 43.9416 69.5309 44.0064Z" fill="#F0F1F2"/>
<g clip-path="url(#clip1)">
<path d="M223.539 142.604V135.034H225.611V142.604H223.539Z" fill="white"/>
<path d="M227.228 138.821C227.226 138.296 227.332 137.775 227.539 137.293C227.737 136.822 228.023 136.396 228.383 136.038C228.753 135.675 229.189 135.39 229.667 135.198C230.695 134.784 231.84 134.784 232.867 135.198C233.342 135.389 233.774 135.673 234.141 136.033C234.498 136.39 234.781 136.816 234.974 137.285C235.178 137.772 235.282 138.296 235.281 138.825C235.283 139.351 235.179 139.872 234.974 140.355C234.776 140.825 234.489 141.252 234.13 141.611C233.761 141.972 233.326 142.257 232.849 142.449C232.261 142.686 231.629 142.789 230.997 142.752C230.365 142.715 229.749 142.537 229.192 142.233C228.591 141.897 228.091 141.402 227.745 140.801C227.4 140.201 227.222 139.516 227.23 138.821H227.228ZM229.352 138.821C229.342 139.356 229.537 139.873 229.895 140.265C230.067 140.46 230.279 140.615 230.516 140.719C230.753 140.823 231.01 140.874 231.268 140.867C231.831 140.867 232.288 140.669 232.64 140.273C232.986 139.871 233.175 139.356 233.173 138.824C233.171 138.291 232.978 137.778 232.63 137.379C232.457 137.183 232.244 137.027 232.005 136.923C231.766 136.819 231.508 136.768 231.249 136.776C230.992 136.768 230.736 136.817 230.501 136.92C230.265 137.023 230.054 137.177 229.883 137.371C229.529 137.768 229.339 138.287 229.352 138.821Z" fill="white"/>
<path d="M237.067 142.604V135.034H239.004L242.077 139.036V135.034H244.129V142.604H242.318L239.118 138.455V142.604H237.067Z" fill="white"/>
<path d="M210.022 137.788V139.336C210.022 139.859 209.9 140.251 209.654 140.513C209.409 140.776 209.067 140.907 208.631 140.908C208.196 140.908 207.855 140.772 207.609 140.498C207.363 140.224 207.241 139.819 207.241 139.282V135.035H205.122V139.321C205.122 140.49 205.427 141.364 206.038 141.944C206.649 142.524 207.507 142.814 208.611 142.815C209.105 142.822 209.597 142.751 210.069 142.604C210.48 142.475 210.859 142.258 211.181 141.968C211.506 141.664 211.751 141.283 211.896 140.86C212.07 140.348 212.153 139.809 212.143 139.268V137.788H210.022Z" fill="white"/>
<path d="M212.122 135.035H210.011V137.171H212.122V135.035Z" fill="white"/>
<path d="M199.731 124.466V126.331H199.733V132.129H201.831V126.331H204.108V124.466H199.731Z" fill="white"/>
<path d="M199.119 124.466H197V126.609H199.119V124.466Z" fill="white"/>
<path d="M214.231 142.604V135.034H216.168L219.241 139.036V135.034H221.29V142.604H219.481L216.282 138.455V142.604H214.231Z" fill="white"/>
<path d="M204.907 132.037V124.404H208.466C209.561 124.404 210.378 124.679 210.918 125.229C211.362 125.682 211.584 126.289 211.584 127.049C211.584 127.608 211.449 128.082 211.177 128.471C210.891 128.873 210.498 129.184 210.044 129.367L211.843 132.037H209.432L207.912 129.718H206.996V132.038L204.907 132.037ZM206.996 128.072H208.377C208.732 128.072 209.007 127.99 209.204 127.828C209.301 127.746 209.379 127.643 209.43 127.526C209.481 127.409 209.504 127.281 209.498 127.153C209.498 126.863 209.399 126.642 209.201 126.491C209.003 126.339 208.725 126.263 208.367 126.263H206.996V128.072Z" fill="white"/>
<path d="M212.182 132.037L215.371 124.413H217.366L220.55 132.037H218.325L217.777 130.686H214.896L214.363 132.037H212.182ZM215.507 129.054H217.187L216.352 126.9L215.507 129.054Z" fill="white"/>
<path d="M221.471 132.037V124.467H224.359C224.965 124.458 225.567 124.552 226.143 124.744C226.635 124.905 227.088 125.17 227.472 125.52C227.827 125.853 228.106 126.261 228.291 126.713C228.487 127.197 228.584 127.715 228.578 128.237C228.583 128.755 228.485 129.27 228.289 129.749C228.101 130.205 227.819 130.615 227.462 130.953C227.074 131.31 226.615 131.581 226.117 131.748C225.537 131.946 224.929 132.043 224.317 132.035L221.471 132.037ZM223.543 130.194H224.387C225.017 130.194 225.518 130.024 225.89 129.683C226.261 129.342 226.448 128.864 226.448 128.249C226.448 127.648 226.261 127.174 225.887 126.828C225.513 126.482 225.013 126.309 224.387 126.309H223.543V130.194Z" fill="white"/>
<path d="M229.837 132.037V124.467H235.854V126.252H231.888V127.397H235.478V129.055H231.888V130.253H235.907V132.038L229.837 132.037Z" fill="white"/>
<path d="M237.134 132.063V124.44H240.689C241.783 124.44 242.599 124.715 243.138 125.264C243.581 125.717 243.803 126.323 243.804 127.082C243.804 127.64 243.668 128.114 243.396 128.503C243.111 128.904 242.718 129.214 242.265 129.397L244.062 132.064H241.654L240.135 129.746H239.221V132.064L237.134 132.063ZM239.221 128.105H240.597C240.951 128.105 241.227 128.024 241.423 127.861C241.52 127.78 241.597 127.677 241.648 127.56C241.699 127.443 241.723 127.316 241.717 127.188C241.717 126.898 241.618 126.677 241.42 126.526C241.222 126.374 240.945 126.298 240.588 126.297H239.221V128.105Z" fill="white"/>
<path d="M244.468 130.912L245.627 129.515C246.376 130.121 247.186 130.423 248.057 130.423C248.331 130.423 248.541 130.377 248.687 130.284C248.756 130.243 248.813 130.183 248.852 130.112C248.89 130.041 248.909 129.961 248.906 129.88C248.906 129.718 248.82 129.586 248.648 129.484C248.476 129.382 248.144 129.273 247.651 129.157C247.397 129.097 247.177 129.041 246.99 128.991C246.803 128.94 246.606 128.875 246.395 128.797C246.21 128.732 246.03 128.65 245.858 128.554C245.706 128.466 245.562 128.364 245.429 128.249C245.297 128.138 245.184 128.007 245.093 127.861C245.004 127.708 244.936 127.544 244.892 127.372C244.839 127.173 244.813 126.967 244.815 126.76C244.806 126.427 244.872 126.097 245.009 125.794C245.145 125.491 245.348 125.224 245.602 125.012C246.127 124.562 246.833 124.337 247.72 124.336C248.947 124.336 249.974 124.671 250.8 125.34L249.759 126.823C249.06 126.327 248.363 126.079 247.668 126.079C247.425 126.079 247.239 126.125 247.111 126.218C247.051 126.258 247.002 126.313 246.968 126.377C246.934 126.441 246.917 126.513 246.918 126.585C246.918 126.671 246.942 126.756 246.988 126.828C247.033 126.901 247.099 126.958 247.176 126.994C247.348 127.092 247.692 127.2 248.208 127.32C248.605 127.403 248.996 127.515 249.377 127.655C249.684 127.768 249.975 127.922 250.243 128.111C250.487 128.28 250.685 128.51 250.816 128.779C250.947 129.067 251.011 129.382 251.004 129.7C251.004 130.464 250.729 131.066 250.179 131.506C249.628 131.946 248.894 132.166 247.974 132.166C247.32 132.169 246.67 132.062 246.052 131.847C245.467 131.646 244.929 131.328 244.468 130.912Z" fill="white"/>
</g>
</g>
<defs>
<clipPath id="clip0">
<rect width="443" height="277" fill="white"/>
</clipPath>
<clipPath id="clip1">
<rect width="54" height="19" fill="white" transform="translate(197 124)"/>
</clipPath>
</defs>
</svg>
